<svg id="Layer_1" data-name="Layer 1" xmlns="http://www.w3.org/2000/svg" xmlns:xlink="http://www.w3.org/1999/xlink" viewBox="0 0 762.59 172.39"><defs><style>.cls-1{fill:url(#linear-gradient);}.cls-2{opacity:0.8;}.cls-3{opacity:0.75;}.cls-4{opacity:0.7;}.cls-5{opacity:0.6;}.cls-6{opacity:0.55;}.cls-7{opacity:0.5;}.cls-8{opacity:0.4;}.cls-9{opacity:0.45;}.cls-10{opacity:0.3;}.cls-11{opacity:0.25;}.cls-12{opacity:0.2;}.cls-13{opacity:0.15;}.cls-14{opacity:0.1;}.cls-15{fill:url(#linear-gradient-2);}.cls-16{opacity:0.65;}.cls-17{opacity:0.35;}.cls-18{fill:url(#linear-gradient-3);}.cls-19{fill:url(#linear-gradient-4);}</style><linearGradient id="linear-gradient" x1="149.95" y1="58.49" x2="199.73" y2="135.15" gradientTransform="matrix(0.87, -0.5, 0.5, 0.87, -92.47, 250.01)" gradientUnits="userSpaceOnUse"><stop offset="0.18"/><stop offset="1" stop-color="#fff" stop-opacity="0"/></linearGradient><linearGradient id="linear-gradient-2" x1="6942.05" y1="-2107.25" x2="6992.13" y2="-2030.13" gradientTransform="matrix(-0.87, 0.5, -0.5, -0.87, 5143.66, -4923.69)" gradientUnits="userSpaceOnUse"><stop offset="0.18"/><stop offset="1" stop-color="#fff" stop-opacity="0"/></linearGradient><linearGradient id="linear-gradient-3" x1="1318.94" y1="-800.31" x2="1364.41" y2="-730.28" gradientTransform="translate(1429.46 1075.78) rotate(-121.09)" xlink:href="#linear-gradient"/><linearGradient id="linear-gradient-4" x1="5767.32" y1="-1232.6" x2="5813.06" y2="-1162.18" gradientTransform="translate(-3843.96 -4059.91) rotate(58.91)" xlink:href="#linear-gradient"/></defs><path d="M285.47,313.47H268.62l1.29-11.78h29.23v39.59a52.47,52.47,0,0,1-11.43,4.24,54.73,54.73,0,0,1-13.55,1.65q-12.14,0-21.15-5.48a36.7,36.7,0,0,1-13.85-14.9,45.35,45.35,0,0,1-4.83-21,43.52,43.52,0,0,1,5.36-21.62,38.6,38.6,0,0,1,14.91-15A42.67,42.67,0,0,1,276,263.74a55.8,55.8,0,0,1,10.73,1.3A40.59,40.59,0,0,1,298,268.93l-4.83,11a27.32,27.32,0,0,0-3.18-.95c-3-.86-5.36-1.47-7.13-1.82a33.57,33.57,0,0,0-6.54-.53,26.55,26.55,0,0,0-13.2,3.3,23.66,23.66,0,0,0-9.37,9.84q-3.48,6.54-3.47,16a36.55,36.55,0,0,0,2.94,15.14,22.63,22.63,0,0,0,8.31,10,22.1,22.1,0,0,0,12.31,3.48,57.24,57.24,0,0,0,11.67-1.3Z" transform="translate(-44.89 -212.28)"/><path d="M333.08,301a37.29,37.29,0,0,0-8.61,1.12,42.9,42.9,0,0,0-8,2.65L312.34,292q3.06-2,9.78-3.59a49.16,49.16,0,0,1,10.72-1.59,28.5,28.5,0,0,1,12.49,2.71,22.61,22.61,0,0,1,9,7.54,18.55,18.55,0,0,1,3.36,10.84v37.59h-10l-2.6-6.13q-7.18,7.55-15.08,7.55-10.25,0-15.44-5t-5.18-13.49q0-8.73,5.89-13.5t15.79-4.77h11.2a9.6,9.6,0,0,0-2.54-6.78A9,9,0,0,0,333.08,301Zm-2.24,19.44a8.09,8.09,0,0,0-6.07,2.36,7.83,7.83,0,0,0-2.3,5.66,5.87,5.87,0,0,0,2.06,4.47,7.47,7.47,0,0,0,5.25,1.89q6.83,0,12.6-5.66v-8.72Z" transform="translate(-44.89 -212.28)"/><path d="M386.57,262.33v83.19h-15.2v-81.9Z" transform="translate(-44.89 -212.28)"/><path d="M422.86,301a37.28,37.28,0,0,0-8.6,1.12,42.9,42.9,0,0,0-8,2.65L402.12,292q3.08-2,9.79-3.59a49.16,49.16,0,0,1,10.72-1.59,28.5,28.5,0,0,1,12.49,2.71,22.68,22.68,0,0,1,9,7.54,18.55,18.55,0,0,1,3.36,10.84v37.59h-10l-2.6-6.13q-7.19,7.55-15.08,7.55-10.24,0-15.44-5t-5.18-13.49q0-8.73,5.89-13.5t15.79-4.77h11.2a9.6,9.6,0,0,0-2.54-6.78A9,9,0,0,0,422.86,301Zm-2.24,19.44a8.08,8.08,0,0,0-6.06,2.36,7.79,7.79,0,0,0-2.3,5.66,5.87,5.87,0,0,0,2.06,4.47,7.44,7.44,0,0,0,5.24,1.89q6.84,0,12.61-5.66v-8.72Z" transform="translate(-44.89 -212.28)"/><path d="M483.08,328.32l-11.43,17.2h-17l19.44-29.1-17.44-25.57,14.26-4.36,13,20.15,11.79-18.27h16.73L493,318.66l17.55,26.86H493.68Z" transform="translate(-44.89 -212.28)"/><path d="M571.57,288.37l-22.39,56.92v27.33H535.87v-27.1l-21.09-54.79,15-4.48L542.94,323l12.49-34.65Z" transform="translate(-44.89 -212.28)"/><path d="M595.14,347.05a39.58,39.58,0,0,1-9.13-1.23,26.54,26.54,0,0,1-8.19-3.24l2.12-4.84a57.34,57.34,0,0,0,7.83,3.3,24.13,24.13,0,0,0,7.6,1.18q7.08,0,11.08-2.88a9.18,9.18,0,0,0,4-7.84q0-7.06-15.09-13-16.61-6.48-16.61-15.91A14.23,14.23,0,0,1,584,291.26q5.17-4.42,14.49-4.42a31.76,31.76,0,0,1,8.54,1.35,25.26,25.26,0,0,1,7.6,3.36l-2.35,4.13a64.38,64.38,0,0,0-7.07-3,24.12,24.12,0,0,0-7.55-1,14.4,14.4,0,0,0-9.6,3.12,9.4,9.4,0,0,0-3.71,7.37c0,2.43,1.25,4.59,3.77,6.48a47,47,0,0,0,10.6,5.54,43.58,43.58,0,0,1,12.67,7.24A12.41,12.41,0,0,1,616,331Q616,347,595.14,347.05Z" transform="translate(-44.89 -212.28)"/><path d="M695.18,288.37l-17,57.15h-5.54l-14.84-48.19-13.55,48.19h-5.54l-16.85-55.73,5.42-2.13,14,50.32,14.49-49.61h4.95L675.62,338l13.67-49.61Z" transform="translate(-44.89 -212.28)"/><path d="M725.11,291.67a33.4,33.4,0,0,0-8.6.94,46.11,46.11,0,0,0-7.78,3.07l-2.24-3.89a27.13,27.13,0,0,1,8.72-3.54,40.8,40.8,0,0,1,9.55-1.41q9.54,0,14.67,5t5.13,13.61v40.06h-4.48l-.94-6.13a23.75,23.75,0,0,1-17.44,7.66q-9.32,0-14.26-4.89a17,17,0,0,1-5-12.66q0-8,5.65-12.55t14.73-4.54h15.91v-7.07q0-6.24-3.47-10T725.11,291.67Zm-1.77,25.1c-4.94,0-8.66,1.18-11.13,3.53a13.1,13.1,0,0,0,0,18.27q3.7,3.66,10,3.65a17.62,17.62,0,0,0,9.48-2.59,23.58,23.58,0,0,0,7.13-6.95V316.77Z" transform="translate(-44.89 -212.28)"/><path d="M807.48,317.24q0,13.32-6.6,21.57T782,347.05a21.25,21.25,0,0,1-7.72-1.53,32.51,32.51,0,0,1-7.25-3.89v31h-5.77V288.37h3.3l1.65,5.42a23.47,23.47,0,0,1,16.61-7q12.25,0,18.44,8.25T807.48,317.24Zm-6,.12q0-11.19-4.71-18.44t-13.91-7.25a18,18,0,0,0-8.72,1.94,29.56,29.56,0,0,0-7.07,5.72v36.41q7.19,6.48,15.2,6.48a16.42,16.42,0,0,0,10.43-3.36,20.8,20.8,0,0,0,6.54-9A33.69,33.69,0,0,0,801.47,317.36Z" transform="translate(-44.89 -212.28)"/><path class="cls-1" d="M131.06,225.85a42.18,42.18,0,0,0-26.61-13.33,41.15,41.15,0,0,0-25.68,5.63,37.68,37.68,0,0,0-7.52,5.4c-6.13,5.47-10.6,12-12.61,19.7l17.23,6a23.08,23.08,0,0,1,2.79-6.57,24.54,24.54,0,0,1,9.56-9.13,24.05,24.05,0,0,1,16.93-3.06,24.42,24.42,0,0,1,14.64,8.68,25.2,25.2,0,0,1,6,17c-.32,8.65-4.34,26.83-5.7,32.43l15,4c1-3.47,3-8.67,3.87-12.15,2.09-8.23,3.69-16.53,3.6-25.07A42.79,42.79,0,0,0,131.06,225.85Z" transform="translate(-44.89 -212.28)"/><path d="M137,370.63a1.61,1.61,0,0,0-1.13-2,1.59,1.59,0,1,0,1.13,2Z" transform="translate(-44.89 -212.28)"/><path d="M141.57,372a1.59,1.59,0,1,0-1.95,1.13A1.59,1.59,0,0,0,141.57,372Z" transform="translate(-44.89 -212.28)"/><path class="cls-2" d="M135.69,364.66a1.59,1.59,0,1,0,1.95-1.12A1.59,1.59,0,0,0,135.69,364.66Z" transform="translate(-44.89 -212.28)"/><path d="M140.08,366.69a1.59,1.59,0,1,0,2-1.13A1.59,1.59,0,0,0,140.08,366.69Z" transform="translate(-44.89 -212.28)"/><path class="cls-3" d="M132.86,363.93a1.59,1.59,0,1,0-1.13-2A1.6,1.6,0,0,0,132.86,363.93Z" transform="translate(-44.89 -212.28)"/><path class="cls-2" d="M132.68,366.17a1.59,1.59,0,1,0,1.12,1.95A1.59,1.59,0,0,0,132.68,366.17Z" transform="translate(-44.89 -212.28)"/><path class="cls-2" d="M128.15,371.27a1.59,1.59,0,1,0,1.95-1.12A1.59,1.59,0,0,0,128.15,371.27Z" transform="translate(-44.89 -212.28)"/><path class="cls-2" d="M128.76,374.61a1.59,1.59,0,1,0,1.12,1.95A1.59,1.59,0,0,0,128.76,374.61Z" transform="translate(-44.89 -212.28)"/><path class="cls-4" d="M128.49,358.57a1.59,1.59,0,1,0,1.95-1.13A1.59,1.59,0,0,0,128.49,358.57Z" transform="translate(-44.89 -212.28)"/><path class="cls-3" d="M127.47,364.62a1.59,1.59,0,1,0,2-1.13A1.6,1.6,0,0,0,127.47,364.62Z" transform="translate(-44.89 -212.28)"/><path class="cls-4" d="M124.57,361.87a1.59,1.59,0,0,0,3.08.83,1.59,1.59,0,1,0-3.08-.83Z" transform="translate(-44.89 -212.28)"/><path class="cls-3" d="M124.64,368.22a1.59,1.59,0,1,0,2-1.13A1.59,1.59,0,0,0,124.64,368.22Z" transform="translate(-44.89 -212.28)"/><path class="cls-3" d="M124.38,371.29a1.59,1.59,0,1,0,1.13,1.95A1.59,1.59,0,0,0,124.38,371.29Z" transform="translate(-44.89 -212.28)"/><path class="cls-5" d="M125.59,354.53a1.59,1.59,0,1,0,2-1.13A1.59,1.59,0,0,0,125.59,354.53Z" transform="translate(-44.89 -212.28)"/><path class="cls-5" d="M122.7,359.54a1.6,1.6,0,0,0,2-1.12,1.62,1.62,0,0,0-2.08-1.94,1.12,1.12,0,0,0-.52.29A1.62,1.62,0,0,0,122.7,359.54Z" transform="translate(-44.89 -212.28)"/><path class="cls-4" d="M123.05,364.14a1.59,1.59,0,0,0-.83,3.08,1.59,1.59,0,1,0,.83-3.08Z" transform="translate(-44.89 -212.28)"/><path class="cls-5" d="M119.38,362.55a1.59,1.59,0,0,0,.83-3.08,1.59,1.59,0,1,0-.83,3.08Z" transform="translate(-44.89 -212.28)"/><path class="cls-4" d="M121.94,369.65a1.59,1.59,0,0,0-1.12-1.95,1.59,1.59,0,1,0-.83,3.08A1.59,1.59,0,0,0,121.94,369.65Z" transform="translate(-44.89 -212.28)"/><path class="cls-5" d="M118.33,365a1.59,1.59,0,1,0-2,1.13A1.59,1.59,0,0,0,118.33,365Z" transform="translate(-44.89 -212.28)"/><path class="cls-6" d="M124.67,352a1.59,1.59,0,1,0-1.12-1.95A1.59,1.59,0,0,0,124.67,352Z" transform="translate(-44.89 -212.28)"/><path class="cls-6" d="M120.45,355.06a1.59,1.59,0,1,0-1.13-2A1.6,1.6,0,0,0,120.45,355.06Z" transform="translate(-44.89 -212.28)"/><path class="cls-6" d="M116.93,358.31a1.59,1.59,0,1,0-1.12-1.95A1.59,1.59,0,0,0,116.93,358.31Z" transform="translate(-44.89 -212.28)"/><path class="cls-6" d="M115.58,360.23a1.59,1.59,0,1,0-2,1.13A1.61,1.61,0,0,0,115.58,360.23Z" transform="translate(-44.89 -212.28)"/><path class="cls-7" d="M122.64,346a1.44,1.44,0,1,0,1.77-1A1.44,1.44,0,0,0,122.64,346Z" transform="translate(-44.89 -212.28)"/><path class="cls-7" d="M118.39,348.66a1.44,1.44,0,1,0,1.76-1A1.43,1.43,0,0,0,118.39,348.66Z" transform="translate(-44.89 -212.28)"/><path class="cls-7" d="M114.23,351.23a1.44,1.44,0,1,0,1.77-1A1.45,1.45,0,0,0,114.23,351.23Z" transform="translate(-44.89 -212.28)"/><path class="cls-7" d="M113.12,354.58a1.44,1.44,0,0,0-1-1.77,1.43,1.43,0,0,0-1.76,1,1.44,1.44,0,0,0,1,1.77A1.43,1.43,0,0,0,113.12,354.58Z" transform="translate(-44.89 -212.28)"/><circle class="cls-8" cx="123.97" cy="337.62" r="1.27" transform="translate(-197.04 -105.12) rotate(-29.99)"/><path class="cls-8" d="M118.68,340.06a1.27,1.27,0,1,0-.91-1.56A1.28,1.28,0,0,0,118.68,340.06Z" transform="translate(-44.89 -212.28)"/><path class="cls-9" d="M118.1,343.23a1.5,1.5,0,1,0,1.84-1.05A1.5,1.5,0,0,0,118.1,343.23Z" transform="translate(-44.89 -212.28)"/><path class="cls-9" d="M122.54,341.49a1.27,1.27,0,1,0,1.56-.9A1.27,1.27,0,0,0,122.54,341.49Z" transform="translate(-44.89 -212.28)"/><path class="cls-9" d="M114.43,346.92a1.44,1.44,0,1,0-1-1.77A1.45,1.45,0,0,0,114.43,346.92Z" transform="translate(-44.89 -212.28)"/><path class="cls-9" d="M112.14,348.14a1.69,1.69,0,1,0-2.07,1.2A1.69,1.69,0,0,0,112.14,348.14Z" transform="translate(-44.89 -212.28)"/><path class="cls-8" d="M113.15,339.7a1.27,1.27,0,1,0,1.56-.9A1.27,1.27,0,0,0,113.15,339.7Z" transform="translate(-44.89 -212.28)"/><path class="cls-8" d="M110.87,341.9a1.28,1.28,0,0,0-1.2-1.61,1.25,1.25,0,0,0-1.15.67,1.27,1.27,0,1,0,2.35.94Z" transform="translate(-44.89 -212.28)"/><path class="cls-10" d="M123.51,332.64a1.13,1.13,0,1,0,1.38-.8A1.13,1.13,0,0,0,123.51,332.64Z" transform="translate(-44.89 -212.28)"/><path class="cls-10" d="M117.74,333.45a1.13,1.13,0,1,0,1.38-.8A1.13,1.13,0,0,0,117.74,333.45Z" transform="translate(-44.89 -212.28)"/><path class="cls-10" d="M113,334a1.13,1.13,0,1,0,1.38-.8A1.13,1.13,0,0,0,113,334Z" transform="translate(-44.89 -212.28)"/><path class="cls-10" d="M111.1,335a1.13,1.13,0,1,0-1.38.8A1.12,1.12,0,0,0,111.1,335Z" transform="translate(-44.89 -212.28)"/><path class="cls-11" d="M124.08,328.28a1.13,1.13,0,1,0,1.38-.79A1.13,1.13,0,0,0,124.08,328.28Z" transform="translate(-44.89 -212.28)"/><path class="cls-11" d="M120.12,327.43a1.12,1.12,0,1,0,.8,1.38A1.13,1.13,0,0,0,120.12,327.43Z" transform="translate(-44.89 -212.28)"/><path class="cls-11" d="M115.94,328.46a1.12,1.12,0,0,0-.79-1.38,1.13,1.13,0,1,0-.59,2.18A1.12,1.12,0,0,0,115.94,328.46Z" transform="translate(-44.89 -212.28)"/><path class="cls-11" d="M111.66,328.82a1.13,1.13,0,1,0-1.38.79A1.12,1.12,0,0,0,111.66,328.82Z" transform="translate(-44.89 -212.28)"/><path class="cls-12" d="M127.13,323.6a1,1,0,1,0-1.93-.51,1,1,0,0,0,1.93.51Z" transform="translate(-44.89 -212.28)"/><path class="cls-12" d="M122.71,323.15a1,1,0,0,0-1-1.25,1,1,0,0,0-.74.43,1,1,0,1,0,1.78.82Z" transform="translate(-44.89 -212.28)"/><path class="cls-12" d="M117.81,322.34a1,1,0,0,0-1.8-.81,1,1,0,1,0,1.8.81Z" transform="translate(-44.89 -212.28)"/><path class="cls-12" d="M112.66,322.38a1,1,0,1,0-1.92-.51,1,1,0,1,0,1.92.51Z" transform="translate(-44.89 -212.28)"/><path class="cls-13" d="M128.07,318a.91.91,0,1,0-1.11.64A.9.9,0,0,0,128.07,318Z" transform="translate(-44.89 -212.28)"/><circle class="cls-13" cx="122.33" cy="316.87" r="0.91" transform="translate(-186.89 -108.72) rotate(-29.99)"/><path class="cls-13" d="M118.45,316.32a.91.91,0,1,0-1.12.64A.92.92,0,0,0,118.45,316.32Z" transform="translate(-44.89 -212.28)"/><path class="cls-13" d="M113.93,315.75a.91.91,0,1,0-1.11.64A.92.92,0,0,0,113.93,315.75Z" transform="translate(-44.89 -212.28)"/><path class="cls-14" d="M128.87,312.21a.64.64,0,0,0,.14-.9.64.64,0,0,0-1,.76A.64.64,0,0,0,128.87,312.21Z" transform="translate(-44.89 -212.28)"/><path class="cls-14" d="M124.21,311.2a.64.64,0,0,0,.14-.9.64.64,0,1,0-1,.75A.64.64,0,0,0,124.21,311.2Z" transform="translate(-44.89 -212.28)"/><path class="cls-14" d="M119.93,310.05a.64.64,0,0,0-.75-1,.64.64,0,0,0-.14.9A.63.63,0,0,0,119.93,310.05Z" transform="translate(-44.89 -212.28)"/><path class="cls-14" d="M115.46,308.84a.65.65,0,0,0,.14-.9.64.64,0,0,0-.9-.14.63.63,0,0,0-.14.89A.65.65,0,0,0,115.46,308.84Z" transform="translate(-44.89 -212.28)"/><path d="M135.7,375.26a1.59,1.59,0,1,0-3.08-.83,1.59,1.59,0,0,0,3.08.83Z" transform="translate(-44.89 -212.28)"/><path d="M140.4,376.56a1.59,1.59,0,1,0-2,1.13A1.59,1.59,0,0,0,140.4,376.56Z" transform="translate(-44.89 -212.28)"/><path d="M131.35,378.3a1.59,1.59,0,1,0,2-1.13A1.61,1.61,0,0,0,131.35,378.3Z" transform="translate(-44.89 -212.28)"/><path d="M136.41,380.54a1.59,1.59,0,1,0,3.08.83,1.59,1.59,0,0,0-3.08-.83Z" transform="translate(-44.89 -212.28)"/><path d="M146.61,378.13a2,2,0,1,0-2.49,1.43A2,2,0,0,0,146.61,378.13Z" transform="translate(-44.89 -212.28)"/><path d="M148.32,377.5a2,2,0,1,0,2.49-1.43A2,2,0,0,0,148.32,377.5Z" transform="translate(-44.89 -212.28)"/><path d="M148.55,372.67a2,2,0,1,0,2.49-1.43A2,2,0,0,0,148.55,372.67Z" transform="translate(-44.89 -212.28)"/><path d="M151.2,370.7a2,2,0,1,0-1.4-2.42A2,2,0,0,0,151.2,370.7Z" transform="translate(-44.89 -212.28)"/><path d="M141.93,381.53a1.94,1.94,0,1,0,2.37-1.37A1.94,1.94,0,0,0,141.93,381.53Z" transform="translate(-44.89 -212.28)"/><path d="M147.84,382.24a1.87,1.87,0,1,0,2.29-1.33A1.87,1.87,0,0,0,147.84,382.24Z" transform="translate(-44.89 -212.28)"/><path d="M143.38,372.38a2,2,0,1,0,3.92,1.06,2,2,0,0,0-3.92-1.06Z" transform="translate(-44.89 -212.28)"/><path d="M144.27,368a1.88,1.88,0,1,0,2.3-1.33A1.88,1.88,0,0,0,144.27,368Z" transform="translate(-44.89 -212.28)"/><path d="M159.3,369a2.34,2.34,0,1,0-2.88,1.66A2.35,2.35,0,0,0,159.3,369Z" transform="translate(-44.89 -212.28)"/><path d="M167,367.14a3,3,0,1,0-3.64,2.1A3,3,0,0,0,167,367.14Z" transform="translate(-44.89 -212.28)"/><path d="M153.76,374.84a2.47,2.47,0,1,0,3-1.75A2.47,2.47,0,0,0,153.76,374.84Z" transform="translate(-44.89 -212.28)"/><path d="M160.31,373.17a2.71,2.71,0,1,0,3.32-1.91A2.71,2.71,0,0,0,160.31,373.17Z" transform="translate(-44.89 -212.28)"/><circle cx="110.26" cy="169.68" r="2.41"/><circle cx="116.31" cy="168.5" r="2.41"/><path class="cls-15" d="M119.83,371.1a42.21,42.21,0,0,0,26.61,13.33,41.14,41.14,0,0,0,25.68-5.63,37.68,37.68,0,0,0,7.52-5.4c6.13-5.47,10.6-12,12.61-19.7l-17.23-6a22.9,22.9,0,0,1-2.79,6.56,24.5,24.5,0,0,1-9.56,9.14,24.05,24.05,0,0,1-16.93,3.06,24.42,24.42,0,0,1-14.64-8.68,25.2,25.2,0,0,1-6-17c.32-8.65,3.63-27.1,5-32.7l-14.85-4c-1,3.46-2.47,8.86-3.35,12.35-2.09,8.23-3.7,16.53-3.6,25.07A42.78,42.78,0,0,0,119.83,371.1Z" transform="translate(-44.89 -212.28)"/><path d="M201.47,248.4c-4-2.76-9.35-4-16.44-3.21-12.4,1.46-24.15,7.36-35.26,16.15a82.16,82.16,0,0,0-16.47,17.82c-1.2,1.72-2.34,3.43-3.43,5.15l-13.54,23a1.65,1.65,0,0,1-.09.21c-1.66,2.88-3.31,5.76-5.11,8.65l0,.07h0a93.63,93.63,0,0,1-5.38,7.83,59.89,59.89,0,0,1-11.6,11.7C85.78,342.07,76,345.7,68.71,344c-3-.7-10.8,13-5.43,13.06a37,37,0,0,0,5.94-.42C80.69,355,91.6,349.57,102,341.6a81.77,81.77,0,0,0,15.37-15.72c2-2.6,3.73-5.2,5.39-7.81l14.42-24.57c1.24-2.16,2.49-4.32,3.8-6.48h0a90.83,90.83,0,0,1,9.17-12.73,54.85,54.85,0,0,1,12.71-10.84c8.65-5.29,17.46-7.2,23.3-4.71" transform="translate(-44.89 -212.28)"/><path d="M60.8,324.2A2.64,2.64,0,0,0,62.73,323c.36-.61.07-1.08-.63-1.05a2.62,2.62,0,0,0-1.93,1.16C59.81,323.76,60.09,324.23,60.8,324.2Z" transform="translate(-44.89 -212.28)"/><path d="M58.68,327.55a2.64,2.64,0,0,0,1.93-1.16c.36-.61.07-1.08-.63-1.05a2.65,2.65,0,0,0-1.93,1.17C57.69,327.12,58,327.59,58.68,327.55Z" transform="translate(-44.89 -212.28)"/><path d="M66.2,322.08a2.62,2.62,0,0,0-1.93,1.17c-.36.61-.08,1.08.63,1a2.64,2.64,0,0,0,1.93-1.16C67.19,322.52,66.9,322.05,66.2,322.08Z" transform="translate(-44.89 -212.28)"/><path d="M63.59,325.39a2.64,2.64,0,0,0-1.93,1.16c-.36.61-.07,1.08.63,1.05a2.62,2.62,0,0,0,1.93-1.17C64.58,325.82,64.3,325.35,63.59,325.39Z" transform="translate(-44.89 -212.28)"/><path class="cls-3" d="M67.19,320.1c-.36.61-.08,1.08.63,1A2.68,2.68,0,0,0,69.75,320c.36-.61.07-1.08-.63-1.05A2.65,2.65,0,0,0,67.19,320.1Z" transform="translate(-44.89 -212.28)"/><path class="cls-2" d="M65.49,320.21c.36-.61.08-1.08-.63-1a2.62,2.62,0,0,0-1.93,1.16c-.36.61-.08,1.08.63,1.05A2.63,2.63,0,0,0,65.49,320.21Z" transform="translate(-44.89 -212.28)"/><path class="cls-2" d="M61.44,318.58a2.62,2.62,0,0,0-1.93,1.16c-.36.61-.08,1.08.63,1.05a2.62,2.62,0,0,0,1.93-1.16C62.43,319,62.15,318.55,61.44,318.58Z" transform="translate(-44.89 -212.28)"/><path class="cls-2" d="M58.81,319.63c.36-.61.08-1.08-.63-1.05a2.66,2.66,0,0,0-1.93,1.17c-.36.61-.08,1.08.63,1.05A2.66,2.66,0,0,0,58.81,319.63Z" transform="translate(-44.89 -212.28)"/><path class="cls-4" d="M72.79,316a2.68,2.68,0,0,0-1.93,1.17c-.36.61-.07,1.08.64,1A2.64,2.64,0,0,0,73.43,317C73.78,316.41,73.5,315.94,72.79,316Z" transform="translate(-44.89 -212.28)"/><path class="cls-3" d="M67.64,316.48a2.62,2.62,0,0,0-1.93,1.17c-.36.61-.08,1.08.63,1a2.64,2.64,0,0,0,1.93-1.16C68.63,316.92,68.34,316.45,67.64,316.48Z" transform="translate(-44.89 -212.28)"/><path class="cls-4" d="M70.82,314.12a2.66,2.66,0,0,0-1.93,1.17c-.36.61-.08,1.08.63,1a2.68,2.68,0,0,0,1.93-1.17C71.81,314.56,71.52,314.09,70.82,314.12Z" transform="translate(-44.89 -212.28)"/><path class="cls-3" d="M65.1,315.36a2.66,2.66,0,0,0-1.93,1.17c-.36.61-.08,1.08.63,1a2.62,2.62,0,0,0,1.93-1.16C66.09,315.8,65.81,315.33,65.1,315.36Z" transform="translate(-44.89 -212.28)"/><path class="cls-3" d="M62.55,316c.36-.61.07-1.08-.63-1A2.65,2.65,0,0,0,60,316.15c-.36.61-.08,1.08.63,1A2.64,2.64,0,0,0,62.55,316Z" transform="translate(-44.89 -212.28)"/><path class="cls-16" d="M77.06,313.14a2.66,2.66,0,0,0-1.93,1.17c-.36.61-.08,1.08.63,1.05a2.66,2.66,0,0,0,1.93-1.17C78.05,313.58,77.77,313.11,77.06,313.14Z" transform="translate(-44.89 -212.28)"/><path class="cls-16" d="M73.22,312.39c-.36.61-.08,1.08.63,1.05.94,0,2.16-.95,2.09-1.79a.36.36,0,0,0-.16-.28C75.07,310.92,73.69,311.58,73.22,312.39Z" transform="translate(-44.89 -212.28)"/><path class="cls-4" d="M69.1,313.61c.36-.61.08-1.08-.63-1.05a2.66,2.66,0,0,0-1.93,1.17c-.36.61-.08,1.08.63,1A2.62,2.62,0,0,0,69.1,313.61Z" transform="translate(-44.89 -212.28)"/><path class="cls-16" d="M71.18,310.85c-.36.61-.08,1.08.63,1a2.66,2.66,0,0,0,1.93-1.17c.36-.61.08-1.08-.63-1.05A2.66,2.66,0,0,0,71.18,310.85Z" transform="translate(-44.89 -212.28)"/><path class="cls-4" d="M64.68,313.73a2.62,2.62,0,0,0,1.93-1.16c.36-.61.08-1.08-.63-1.05a2.63,2.63,0,0,0-1.93,1.17C63.69,313.3,64,313.77,64.68,313.73Z" transform="translate(-44.89 -212.28)"/><path class="cls-16" d="M69.17,310.6a2.62,2.62,0,0,0,1.93-1.16c.36-.61.08-1.08-.63-1.05a2.66,2.66,0,0,0-1.93,1.17C68.18,310.17,68.46,310.64,69.17,310.6Z" transform="translate(-44.89 -212.28)"/><path class="cls-5" d="M79.44,312c-.36.61-.08,1.08.63,1A2.64,2.64,0,0,0,82,311.85c.36-.61.07-1.08-.63-1.05A2.65,2.65,0,0,0,79.44,312Z" transform="translate(-44.89 -212.28)"/><path class="cls-5" d="M77.59,309.94c-.36.61-.08,1.08.63,1.05a2.66,2.66,0,0,0,1.93-1.17c.36-.61.08-1.08-.63-1.05A2.66,2.66,0,0,0,77.59,309.94Z" transform="translate(-44.89 -212.28)"/><path class="cls-5" d="M75.37,308.32c-.36.61-.07,1.08.63,1.05a2.68,2.68,0,0,0,1.94-1.17c.35-.61.07-1.08-.64-1.05A2.68,2.68,0,0,0,75.37,308.32Z" transform="translate(-44.89 -212.28)"/><path class="cls-5" d="M73.93,307.84a2.65,2.65,0,0,0,1.93-1.17c.36-.61.08-1.08-.63-1a2.64,2.64,0,0,0-1.93,1.16C72.94,307.4,73.23,307.87,73.93,307.84Z" transform="translate(-44.89 -212.28)"/><path class="cls-6" d="M85.12,309.36a2.37,2.37,0,0,0-1.75,1.06c-.33.55-.07,1,.57.94a2.41,2.41,0,0,0,1.75-1.05C86,309.76,85.76,309.33,85.12,309.36Z" transform="translate(-44.89 -212.28)"/><path class="cls-6" d="M83.61,307.2a2.37,2.37,0,0,0-1.74,1.05c-.33.56-.07,1,.57.95a2.41,2.41,0,0,0,1.75-1.05C84.51,307.6,84.26,307.17,83.61,307.2Z" transform="translate(-44.89 -212.28)"/><path class="cls-6" d="M82.11,305a2.35,2.35,0,0,0-1.74,1.06c-.33.55-.07,1,.57.94A2.41,2.41,0,0,0,82.69,306C83,305.41,82.76,305,82.11,305Z" transform="translate(-44.89 -212.28)"/><path class="cls-6" d="M79.33,304.94a2.39,2.39,0,0,0,1.75-1.05c.33-.56.07-1-.57-.95A2.41,2.41,0,0,0,78.76,304C78.44,304.54,78.69,305,79.33,304.94Z" transform="translate(-44.89 -212.28)"/><ellipse class="cls-9" cx="91.85" cy="308.58" rx="1.27" ry="0.69" transform="translate(-191.04 -120.53) rotate(-31.09)"/><path class="cls-9" d="M91.14,305.54c-.28.49-.06.86.51.84a2.15,2.15,0,0,0,1.54-.93c.29-.49.06-.87-.5-.84A2.12,2.12,0,0,0,91.14,305.54Z" transform="translate(-44.89 -212.28)"/><path class="cls-7" d="M88.15,305.66a2.09,2.09,0,0,0-1.54.93c-.29.49-.07.86.5.84a2.12,2.12,0,0,0,1.54-.93C88.94,306,88.71,305.63,88.15,305.66Z" transform="translate(-44.89 -212.28)"/><path class="cls-7" d="M88.91,308.4a2.15,2.15,0,0,0-1.55.93c-.28.49-.06.87.51.84a2.09,2.09,0,0,0,1.54-.93C89.7,308.75,89.47,308.38,88.91,308.4Z" transform="translate(-44.89 -212.28)"/><path class="cls-7" d="M85.88,304.22c-.32.55-.06,1,.57.94a2.41,2.41,0,0,0,1.75-1.05c.32-.55.06-1-.57-.95A2.39,2.39,0,0,0,85.88,304.22Z" transform="translate(-44.89 -212.28)"/><path class="cls-7" d="M85.23,303a2.76,2.76,0,0,0,2-1.23c.38-.64.08-1.14-.67-1.1a2.76,2.76,0,0,0-2,1.23C84.18,302.5,84.48,303,85.23,303Z" transform="translate(-44.89 -212.28)"/><path class="cls-9" d="M92.49,301.81a2.15,2.15,0,0,0-1.55.93c-.28.49-.06.87.51.84a2.12,2.12,0,0,0,1.54-.93C93.28,302.16,93.05,301.79,92.49,301.81Z" transform="translate(-44.89 -212.28)"/><path class="cls-9" d="M91.27,300.82a2,2,0,0,0,1.64-1.14.45.45,0,0,0-.38-.62,2,2,0,0,0-1.77.92C90.48,300.47,90.7,300.84,91.27,300.82Z" transform="translate(-44.89 -212.28)"/><path class="cls-8" d="M96.38,307.21A1.89,1.89,0,0,0,95,308c-.25.43-.05.76.45.74a1.88,1.88,0,0,0,1.36-.83C97.08,307.52,96.88,307.19,96.38,307.21Z" transform="translate(-44.89 -212.28)"/><path class="cls-8" d="M97,303.8a1.82,1.82,0,0,0-1.36.83c-.26.43-.06.76.44.74a1.9,1.9,0,0,0,1.37-.83C97.65,304.11,97.45,303.78,97,303.8Z" transform="translate(-44.89 -212.28)"/><path class="cls-8" d="M97.57,300.49a1.88,1.88,0,0,0-1.37.82c-.25.43,0,.77.45.74a1.88,1.88,0,0,0,1.37-.82C98.27,300.8,98.07,300.47,97.57,300.49Z" transform="translate(-44.89 -212.28)"/><path class="cls-8" d="M96.9,299.29a1.84,1.84,0,0,0,1.36-.82c.26-.43.06-.77-.44-.74a1.88,1.88,0,0,0-1.37.82C96.2,299,96.4,299.31,96.9,299.29Z" transform="translate(-44.89 -212.28)"/><path class="cls-17" d="M100.39,306.71a1.84,1.84,0,0,0-1.36.82c-.25.44,0,.77.45.74a1.84,1.84,0,0,0,1.36-.82C101.09,307,100.9,306.69,100.39,306.71Z" transform="translate(-44.89 -212.28)"/><path class="cls-17" d="M102,303.77c.26-.43.06-.76-.45-.74a1.88,1.88,0,0,0-1.36.83c-.25.43,0,.76.45.74A1.82,1.82,0,0,0,102,303.77Z" transform="translate(-44.89 -212.28)"/><path class="cls-17" d="M101.87,301.24a1.88,1.88,0,0,0,1.37-.82c.25-.43.05-.77-.45-.74a1.88,1.88,0,0,0-1.37.82C101.17,300.93,101.37,301.26,101.87,301.24Z" transform="translate(-44.89 -212.28)"/><path class="cls-17" d="M102.35,298.49a1.86,1.86,0,0,0,1.37-.82c.25-.43,0-.77-.45-.74a1.84,1.84,0,0,0-1.36.82C101.65,298.18,101.85,298.51,102.35,298.49Z" transform="translate(-44.89 -212.28)"/><path class="cls-10" d="M103.76,307.78a1.64,1.64,0,0,0,1.2-.73c.23-.38.05-.67-.39-.65a1.64,1.64,0,0,0-1.21.73C103.14,307.51,103.31,307.8,103.76,307.78Z" transform="translate(-44.89 -212.28)"/><path class="cls-10" d="M105,304.17a1.51,1.51,0,0,0,1.3-.95.32.32,0,0,0-.24-.4,1.51,1.51,0,0,0-1.46.7C104.38,303.9,104.56,304.19,105,304.17Z" transform="translate(-44.89 -212.28)"/><path class="cls-10" d="M106.67,300.83a1.54,1.54,0,0,0,1.29-.95.32.32,0,0,0-.25-.41,1.52,1.52,0,0,0-1.44.7C106.05,300.55,106.22,300.85,106.67,300.83Z" transform="translate(-44.89 -212.28)"/><path class="cls-10" d="M108.05,297.77a1.64,1.64,0,0,0,1.21-.73c.23-.38,0-.67-.39-.65a1.61,1.61,0,0,0-1.21.73C107.43,297.5,107.61,297.79,108.05,297.77Z" transform="translate(-44.89 -212.28)"/><path class="cls-11" d="M108.72,307.32a1.51,1.51,0,0,0,1.11-.66c.2-.35,0-.62-.36-.6a1.52,1.52,0,0,0-1.11.67C108.16,307.07,108.32,307.34,108.72,307.32Z" transform="translate(-44.89 -212.28)"/><ellipse class="cls-11" cx="110.6" cy="303.14" rx="0.91" ry="0.49" transform="translate(-185.54 -111.62) rotate(-31.09)"/><path class="cls-11" d="M112,300.4a1.51,1.51,0,0,0,1.1-.66c.21-.35.05-.62-.36-.6a1.51,1.51,0,0,0-1.1.66C111.41,300.15,111.57,300.42,112,300.4Z" transform="translate(-44.89 -212.28)"/><path class="cls-11" d="M113.46,297.18a1.52,1.52,0,0,0,1.1-.67c.2-.35,0-.61-.36-.6a1.51,1.51,0,0,0-1.1.67C112.89,296.93,113.05,297.19,113.46,297.18Z" transform="translate(-44.89 -212.28)"/><path class="cls-14" d="M113.58,306.81c.13.14.47.1.76-.1s.43-.48.3-.63-.48-.1-.77.1S113.45,306.66,113.58,306.81Z" transform="translate(-44.89 -212.28)"/><path class="cls-14" d="M115.32,303.48c.13.14.48.1.77-.1s.42-.48.29-.63-.47-.1-.77.1S115.19,303.33,115.32,303.48Z" transform="translate(-44.89 -212.28)"/><path class="cls-14" d="M117.12,300.23c.13.15.47.1.76-.1s.43-.47.3-.62-.48-.1-.77.1S117,300.09,117.12,300.23Z" transform="translate(-44.89 -212.28)"/><path class="cls-14" d="M119.27,296.7c.13.14.47.1.76-.1s.42-.48.29-.63-.47-.1-.76.1S119.14,296.55,119.27,296.7Z" transform="translate(-44.89 -212.28)"/><path d="M57,324.35a2.62,2.62,0,0,0,1.93-1.16c.36-.61.08-1.08-.63-1.05a2.63,2.63,0,0,0-1.93,1.17C56,323.92,56.24,324.38,57,324.35Z" transform="translate(-44.89 -212.28)"/><path d="M54.93,327.74a2.63,2.63,0,0,0,1.93-1.17c.36-.61.08-1.08-.63-1a2.62,2.62,0,0,0-1.93,1.16C53.94,327.3,54.22,327.77,54.93,327.74Z" transform="translate(-44.89 -212.28)"/><path d="M55.07,322.14a2.63,2.63,0,0,0-1.93,1.17c-.36.61-.07,1.07.63,1a2.62,2.62,0,0,0,1.93-1.16C56.06,322.58,55.78,322.11,55.07,322.14Z" transform="translate(-44.89 -212.28)"/><path d="M52.16,326a2.66,2.66,0,0,0-1.93,1.17c-.36.61-.08,1.08.63,1.05A2.66,2.66,0,0,0,52.79,327C53.15,326.4,52.87,325.93,52.16,326Z" transform="translate(-44.89 -212.28)"/><path d="M52.37,332.13a3.36,3.36,0,0,0,2.46-1.49c.46-.78.1-1.37-.81-1.33a3.35,3.35,0,0,0-2.46,1.48C51.1,331.57,51.46,332.17,52.37,332.13Z" transform="translate(-44.89 -212.28)"/><path d="M52.63,333.17a3.33,3.33,0,0,0-2.46,1.48c-.46.78-.1,1.38.8,1.34a3.36,3.36,0,0,0,2.46-1.49C53.89,333.72,53.53,333.13,52.63,333.17Z" transform="translate(-44.89 -212.28)"/><path d="M56.84,332.28a3.39,3.39,0,0,0-2.46,1.49c-.46.78-.1,1.38.81,1.33a3.35,3.35,0,0,0,2.46-1.48C58.11,332.84,57.75,332.24,56.84,332.28Z" transform="translate(-44.89 -212.28)"/><path d="M58,333.59c-.45.76-.1,1.34.78,1.3a3.25,3.25,0,0,0,2.39-1.45c.45-.75.1-1.33-.78-1.29A3.23,3.23,0,0,0,58,333.59Z" transform="translate(-44.89 -212.28)"/><path d="M50.1,329.81a3.23,3.23,0,0,0-2.35,1.42c-.44.74-.09,1.31.77,1.27a3.22,3.22,0,0,0,2.35-1.41C51.31,330.34,51,329.77,50.1,329.81Z" transform="translate(-44.89 -212.28)"/><path d="M48.49,333.77a3.13,3.13,0,0,0-2.28,1.38c-.42.71-.09,1.26.75,1.23A3.1,3.1,0,0,0,49.23,335C49.65,334.29,49.32,333.74,48.49,333.77Z" transform="translate(-44.89 -212.28)"/><path d="M58.06,328.81a3.33,3.33,0,0,0-2.46,1.48c-.46.78-.1,1.38.8,1.34a3.39,3.39,0,0,0,2.46-1.49C59.32,329.36,59,328.76,58.06,328.81Z" transform="translate(-44.89 -212.28)"/><path d="M61.65,328.5a3.13,3.13,0,0,0-2.27,1.37c-.42.72-.09,1.28.74,1.24a3.12,3.12,0,0,0,2.28-1.37C62.82,329,62.49,328.47,61.65,328.5Z" transform="translate(-44.89 -212.28)"/><path d="M58,338.71A3.89,3.89,0,0,0,60.88,337c.53-.89.11-1.58-.93-1.53a3.85,3.85,0,0,0-2.84,1.71C56.58,338.07,57,338.75,58,338.71Z" transform="translate(-44.89 -212.28)"/><path d="M58.3,343.26a4.91,4.91,0,0,0,3.6-2.17c.67-1.14.14-2-1.17-1.95a4.91,4.91,0,0,0-3.6,2.17C56.46,342.44,57,343.32,58.3,343.26Z" transform="translate(-44.89 -212.28)"/><path d="M54,336.19a4.08,4.08,0,0,0-3,1.8c-.55.95-.11,1.67,1,1.62a4.08,4.08,0,0,0,3-1.8C55.5,336.86,55.07,336.14,54,336.19Z" transform="translate(-44.89 -212.28)"/><path d="M54.22,340.16a4.43,4.43,0,0,0-3.27,2c-.61,1-.13,1.83,1.07,1.77a4.41,4.41,0,0,0,3.27-2C55.9,340.9,55.42,340.1,54.22,340.16Z" transform="translate(-44.89 -212.28)"/><ellipse cx="47.43" cy="338.64" rx="2.41" ry="1.3" transform="translate(-212.94 -139.15) rotate(-31.09)"/><ellipse cx="47.35" cy="342.38" rx="2.41" ry="1.3" transform="matrix(0.86, -0.52, 0.52, 0.86, -214.88, -138.65)"/><path class="cls-18" d="M63.42,313c-8.13,6.36-13.92,13.66-16.69,20.44-2.45,6-2.54,11.57.2,15.74a11.61,11.61,0,0,0,3.36,3.8c3.69,2.87,8.59,4.42,15,4.09l8.51-12.67a17.8,17.8,0,0,1-5.27-.43,9,9,0,0,1-6.28-4.35c-1.78-2.58-1.6-6.39.44-10.52a33.31,33.31,0,0,1,10.37-11.53,43.63,43.63,0,0,1,16.09-7.61c7.57-1.65,22.85-2.91,27.53-3.22l6.35-10.8c-2.88.11-7.09-.1-10,.06a111.55,111.55,0,0,0-21.42,3A75,75,0,0,0,63.42,313Z" transform="translate(-44.89 -212.28)"/><path d="M192.16,277.9a2.62,2.62,0,0,0-1.93,1.16c-.36.61-.08,1.08.63,1.05a2.66,2.66,0,0,0,1.93-1.17C193.15,278.33,192.87,277.86,192.16,277.9Z" transform="translate(-44.89 -212.28)"/><path d="M194.25,274.56a2.62,2.62,0,0,0-1.93,1.16c-.36.61-.08,1.08.63,1a2.62,2.62,0,0,0,1.93-1.16C195.24,275,195,274.53,194.25,274.56Z" transform="translate(-44.89 -212.28)"/><path class="cls-2" d="M186.66,280a2.62,2.62,0,0,0,1.93-1.17c.36-.61.08-1.08-.63-1A2.64,2.64,0,0,0,186,279C185.67,279.59,186,280.06,186.66,280Z" transform="translate(-44.89 -212.28)"/><path d="M189.26,276.69a2.62,2.62,0,0,0,1.93-1.16c.36-.61.08-1.08-.63-1a2.63,2.63,0,0,0-1.93,1.17C188.27,276.26,188.55,276.73,189.26,276.69Z" transform="translate(-44.89 -212.28)"/><path class="cls-3" d="M185.49,282.06c.36-.61.07-1.08-.63-1.05a2.59,2.59,0,0,0-1.93,1.17c-.36.61-.08,1.07.63,1A2.64,2.64,0,0,0,185.49,282.06Z" transform="translate(-44.89 -212.28)"/><path class="cls-2" d="M187.43,281.69c-.36.61-.07,1.08.63,1.05a2.6,2.6,0,0,0,1.93-1.16c.36-.62.08-1.08-.63-1.05A2.64,2.64,0,0,0,187.43,281.69Z" transform="translate(-44.89 -212.28)"/><path class="cls-2" d="M191.09,283.58a2.62,2.62,0,0,0,1.93-1.16c.36-.61.08-1.08-.63-1.05a2.6,2.6,0,0,0-1.93,1.17C190.1,283.15,190.38,283.62,191.09,283.58Z" transform="translate(-44.89 -212.28)"/><path class="cls-2" d="M194.14,282.47c-.36.61-.07,1.08.63,1a2.6,2.6,0,0,0,1.93-1.16c.36-.61.08-1.08-.63-1.05A2.65,2.65,0,0,0,194.14,282.47Z" transform="translate(-44.89 -212.28)"/><path class="cls-4" d="M180,286.09a2.64,2.64,0,0,0,1.94-1.16c.35-.61.07-1.08-.64-1.05a2.64,2.64,0,0,0-1.93,1.16C179,285.66,179.25,286.12,180,286.09Z" transform="translate(-44.89 -212.28)"/><path class="cls-3" d="M185.1,285.46A2.62,2.62,0,0,0,187,284.3c.36-.61.08-1.08-.63-1.05a2.62,2.62,0,0,0-1.93,1.16C184.11,285,184.39,285.49,185.1,285.46Z" transform="translate(-44.89 -212.28)"/><path class="cls-4" d="M182.14,288a2.62,2.62,0,0,0,1.93-1.16c.36-.61.08-1.08-.63-1.05a2.63,2.63,0,0,0-1.93,1.17C181.15,287.54,181.43,288,182.14,288Z" transform="translate(-44.89 -212.28)"/><path class="cls-3" d="M187.75,286.56a2.66,2.66,0,0,0,1.93-1.17c.36-.61.07-1.08-.63-1a2.62,2.62,0,0,0-1.93,1.16C186.76,286.12,187,286.59,187.75,286.56Z" transform="translate(-44.89 -212.28)"/><path class="cls-3" d="M190.41,286.07c-.36.61-.08,1.08.63,1A2.62,2.62,0,0,0,193,286c.36-.61.08-1.08-.63-1.05A2.66,2.66,0,0,0,190.41,286.07Z" transform="translate(-44.89 -212.28)"/><path class="cls-5" d="M175.85,288.88a2.66,2.66,0,0,0,1.93-1.17c.36-.61.08-1.08-.63-1a2.62,2.62,0,0,0-1.93,1.16C174.86,288.44,175.14,288.91,175.85,288.88Z" transform="translate(-44.89 -212.28)"/><path class="cls-5" d="M179.74,289.7c.36-.61.08-1.08-.63-1-.94,0-2.17.95-2.1,1.79a.35.35,0,0,0,.17.27C177.88,291.17,179.26,290.52,179.74,289.7Z" transform="translate(-44.89 -212.28)"/><path class="cls-4" d="M183.85,288.49c-.36.61-.07,1.08.63,1a2.6,2.6,0,0,0,1.93-1.16c.36-.61.08-1.08-.63-1.05A2.65,2.65,0,0,0,183.85,288.49Z" transform="translate(-44.89 -212.28)"/><path class="cls-5" d="M181.78,291.25c.35-.61.07-1.08-.63-1.05a2.65,2.65,0,0,0-1.94,1.17c-.35.61-.07,1.08.64,1A2.64,2.64,0,0,0,181.78,291.25Z" transform="translate(-44.89 -212.28)"/><path class="cls-4" d="M188.51,288a2.64,2.64,0,0,0-1.93,1.16c-.36.61-.07,1.08.63,1.05a2.62,2.62,0,0,0,1.93-1.16C189.5,288.47,189.22,288,188.51,288Z" transform="translate(-44.89 -212.28)"/><path class="cls-5" d="M183.74,291.42a2.62,2.62,0,0,0-1.93,1.16c-.36.61-.08,1.08.63,1.05a2.66,2.66,0,0,0,1.93-1.17C184.73,291.85,184.45,291.38,183.74,291.42Z" transform="translate(-44.89 -212.28)"/><path class="cls-6" d="M173.46,290c.36-.62.07-1.08-.63-1a2.64,2.64,0,0,0-1.94,1.16c-.35.61-.07,1.08.64,1.05A2.64,2.64,0,0,0,173.46,290Z" transform="translate(-44.89 -212.28)"/><path class="cls-6" d="M175.36,292.16c.36-.61.08-1.08-.63-1.05a2.65,2.65,0,0,0-1.93,1.17c-.36.61-.07,1.08.63,1A2.6,2.6,0,0,0,175.36,292.16Z" transform="translate(-44.89 -212.28)"/><path class="cls-6" d="M177.58,293.78c.36-.61.08-1.08-.63-1A2.6,2.6,0,0,0,175,293.9c-.36.61-.08,1.07.63,1A2.62,2.62,0,0,0,177.58,293.78Z" transform="translate(-44.89 -212.28)"/><path class="cls-6" d="M179,294.26a2.62,2.62,0,0,0-1.93,1.16c-.36.62-.08,1.08.63,1.05a2.62,2.62,0,0,0,1.93-1.16C180,294.7,179.73,294.23,179,294.26Z" transform="translate(-44.89 -212.28)"/><path class="cls-7" d="M167.79,292.66a2.39,2.39,0,0,0,1.75-1.05c.33-.56.07-1-.57-.95a2.41,2.41,0,0,0-1.75,1C166.9,292.26,167.15,292.69,167.79,292.66Z" transform="translate(-44.89 -212.28)"/><path class="cls-7" d="M169.34,294.9a2.39,2.39,0,0,0,1.75-1.06c.32-.55.07-1-.57-.95a2.4,2.4,0,0,0-1.75,1.06C168.44,294.5,168.7,294.93,169.34,294.9Z" transform="translate(-44.89 -212.28)"/><path class="cls-7" d="M170.84,297.08a2.38,2.38,0,0,0,1.75-1.05c.32-.55.07-1-.57-.95a2.37,2.37,0,0,0-1.75,1.06C169.94,296.69,170.2,297.11,170.84,297.08Z" transform="translate(-44.89 -212.28)"/><path class="cls-7" d="M173.58,297.1a2.34,2.34,0,0,0-1.74,1c-.33.55-.07,1,.57,1a2.39,2.39,0,0,0,1.75-1.06C174.48,297.49,174.23,297.07,173.58,297.1Z" transform="translate(-44.89 -212.28)"/><ellipse class="cls-8" cx="160.65" cy="293.58" rx="1.27" ry="0.69" transform="translate(-173.41 -87.15) rotate(-31.09)"/><path class="cls-8" d="M161.81,296.56c.29-.49.06-.87-.5-.84a2.12,2.12,0,0,0-1.55.93c-.28.49-.06.86.51.84A2.14,2.14,0,0,0,161.81,296.56Z" transform="translate(-44.89 -212.28)"/><path class="cls-9" d="M164.51,296.25a2.45,2.45,0,0,0,1.81-1.1c.34-.57.07-1-.59-1a2.47,2.47,0,0,0-1.82,1.1C163.58,295.84,163.84,296.28,164.51,296.25Z" transform="translate(-44.89 -212.28)"/><path class="cls-9" d="M163.79,293.69a2.09,2.09,0,0,0,1.55-.93c.28-.48.06-.86-.51-.83a2.09,2.09,0,0,0-1.54.93C163,293.35,163.23,293.72,163.79,293.69Z" transform="translate(-44.89 -212.28)"/><path class="cls-9" d="M167.07,297.88c.33-.55.07-1-.57-.94a2.37,2.37,0,0,0-1.74,1.05c-.32.55-.07,1,.57.94A2.37,2.37,0,0,0,167.07,297.88Z" transform="translate(-44.89 -212.28)"/><path class="cls-9" d="M167.73,299.13a2.82,2.82,0,0,0-2,1.23c-.38.65-.08,1.15.66,1.11a2.77,2.77,0,0,0,2.05-1.23C168.77,299.59,168.48,299.1,167.73,299.13Z" transform="translate(-44.89 -212.28)"/><path class="cls-8" d="M160.47,300.28a2.09,2.09,0,0,0,1.54-.93c.29-.48.06-.86-.5-.83a2.09,2.09,0,0,0-1.55.93C159.68,299.94,159.9,300.31,160.47,300.28Z" transform="translate(-44.89 -212.28)"/><path class="cls-8" d="M162,301.32a2,2,0,0,0-1.63,1.13.44.44,0,0,0,.37.62,2,2,0,0,0,1.77-.92C162.78,301.66,162.55,301.29,162,301.32Z" transform="translate(-44.89 -212.28)"/><path class="cls-10" d="M156.17,295a1.84,1.84,0,0,0,1.36-.82c.26-.43.06-.77-.44-.74a1.86,1.86,0,0,0-1.37.82C155.47,294.65,155.67,295,156.17,295Z" transform="translate(-44.89 -212.28)"/><path class="cls-10" d="M155.81,298.59a1.88,1.88,0,0,0,1.37-.82c.25-.43,0-.76-.45-.74a1.84,1.84,0,0,0-1.36.82C155.11,298.29,155.31,298.62,155.81,298.59Z" transform="translate(-44.89 -212.28)"/><path class="cls-10" d="M155.39,301.61a1.82,1.82,0,0,0,1.36-.83c.25-.43.05-.76-.44-.74a1.88,1.88,0,0,0-1.37.83C154.69,301.3,154.89,301.63,155.39,301.61Z" transform="translate(-44.89 -212.28)"/><path class="cls-10" d="M156,302.64a1.89,1.89,0,0,0-1.37.83c-.25.43-.05.76.45.74a1.88,1.88,0,0,0,1.36-.83C156.66,303,156.46,302.62,156,302.64Z" transform="translate(-44.89 -212.28)"/><path class="cls-11" d="M152.44,295.52a1.84,1.84,0,0,0,1.36-.82c.25-.43,0-.76-.45-.74a1.84,1.84,0,0,0-1.36.82C151.74,295.21,151.94,295.55,152.44,295.52Z" transform="translate(-44.89 -212.28)"/><path class="cls-11" d="M150.94,298.32c-.25.43-.05.77.45.74a1.88,1.88,0,0,0,1.37-.82c.25-.43.05-.76-.45-.74A1.88,1.88,0,0,0,150.94,298.32Z" transform="translate(-44.89 -212.28)"/><path class="cls-11" d="M151.08,300.86a1.84,1.84,0,0,0-1.36.82c-.26.43-.06.76.45.74a1.84,1.84,0,0,0,1.36-.82C151.78,301.16,151.58,300.83,151.08,300.86Z" transform="translate(-44.89 -212.28)"/><path class="cls-11" d="M150.6,303.61a1.84,1.84,0,0,0-1.36.82c-.26.43-.06.76.44.74a1.88,1.88,0,0,0,1.37-.82C151.3,303.91,151.1,303.58,150.6,303.61Z" transform="translate(-44.89 -212.28)"/><path class="cls-12" d="M148.87,294.52a1.63,1.63,0,0,0-1.2.72c-.23.39,0,.68.39.66a1.68,1.68,0,0,0,1.21-.73C149.49,294.79,149.32,294.5,148.87,294.52Z" transform="translate(-44.89 -212.28)"/><path class="cls-12" d="M147.66,297.53a1.52,1.52,0,0,0-1.3,1,.32.32,0,0,0,.24.4,1.53,1.53,0,0,0,1.45-.71C148.28,297.8,148.1,297.51,147.66,297.53Z" transform="translate(-44.89 -212.28)"/><path class="cls-12" d="M146,300.94a1.56,1.56,0,0,0-1.3.95.32.32,0,0,0,.25.41,1.51,1.51,0,0,0,1.44-.7C146.65,301.22,146.47,300.92,146,300.94Z" transform="translate(-44.89 -212.28)"/><path class="cls-12" d="M145.11,304.33a1.64,1.64,0,0,0-1.2.73c-.23.38,0,.67.39.65a1.64,1.64,0,0,0,1.21-.73C145.73,304.6,145.56,304.31,145.11,304.33Z" transform="translate(-44.89 -212.28)"/><path class="cls-13" d="M144.13,295.09a1.51,1.51,0,0,0-1.1.67c-.21.35-.05.61.36.59a1.48,1.48,0,0,0,1.1-.66C144.69,295.34,144.53,295.08,144.13,295.09Z" transform="translate(-44.89 -212.28)"/><ellipse class="cls-13" cx="142.04" cy="299.14" rx="0.91" ry="0.49" transform="matrix(0.86, -0.52, 0.52, 0.86, -178.95, -95.96)"/><path class="cls-13" d="M140.84,301.82a1.48,1.48,0,0,0-1.1.66c-.2.35,0,.62.36.6a1.51,1.51,0,0,0,1.1-.67C141.41,302.07,141.25,301.8,140.84,301.82Z" transform="translate(-44.89 -212.28)"/><path class="cls-13" d="M139.5,304.92a1.49,1.49,0,0,0-1.1.67c-.21.34-.05.61.36.59a1.51,1.51,0,0,0,1.1-.66C140.06,305.17,139.9,304.9,139.5,304.92Z" transform="translate(-44.89 -212.28)"/><path class="cls-14" d="M139.15,295.82c-.13-.14-.47-.1-.76.1s-.42.48-.29.62.47.1.76-.1S139.29,296,139.15,295.82Z" transform="translate(-44.89 -212.28)"/><path class="cls-14" d="M137.39,299.11c-.13-.14-.47-.1-.76.1s-.42.48-.29.62.47.1.76-.09S137.52,299.26,137.39,299.11Z" transform="translate(-44.89 -212.28)"/><path class="cls-14" d="M135.59,302.18c-.13-.14-.47-.1-.76.1s-.42.48-.29.63.47.1.76-.1S135.72,302.33,135.59,302.18Z" transform="translate(-44.89 -212.28)"/><path class="cls-14" d="M133.69,305.4c-.13-.14-.47-.1-.77.1s-.42.48-.29.62.48.1.77-.1S133.82,305.55,133.69,305.4Z" transform="translate(-44.89 -212.28)"/><path d="M196,277.74a2.68,2.68,0,0,0-1.93,1.17c-.36.61-.07,1.08.63,1a2.65,2.65,0,0,0,1.93-1.17C197,278.18,196.71,277.71,196,277.74Z" transform="translate(-44.89 -212.28)"/><path d="M198,274.36a2.64,2.64,0,0,0-1.93,1.16c-.36.61-.07,1.08.63,1.05a2.64,2.64,0,0,0,1.94-1.16C199,274.8,198.73,274.33,198,274.36Z" transform="translate(-44.89 -212.28)"/><path d="M197.88,280a2.66,2.66,0,0,0,1.93-1.17c.36-.61.08-1.08-.63-1.05a2.66,2.66,0,0,0-1.93,1.17C196.89,279.52,197.18,280,197.88,280Z" transform="translate(-44.89 -212.28)"/><path d="M200.8,276.13a2.62,2.62,0,0,0,1.93-1.16c.36-.61.07-1.08-.63-1.05a2.6,2.6,0,0,0-1.93,1.17C199.81,275.7,200.09,276.17,200.8,276.13Z" transform="translate(-44.89 -212.28)"/><path d="M200.56,269.92a3.36,3.36,0,0,0-2.46,1.49c-.46.77-.1,1.37.8,1.33a3.36,3.36,0,0,0,2.46-1.48C201.82,270.48,201.46,269.88,200.56,269.92Z" transform="translate(-44.89 -212.28)"/><path d="M200.33,268.93a3.36,3.36,0,0,0,2.46-1.49c.46-.77.1-1.37-.8-1.33a3.38,3.38,0,0,0-2.47,1.48C199.06,268.37,199.43,269,200.33,268.93Z" transform="translate(-44.89 -212.28)"/><path d="M196.11,269.81a3.33,3.33,0,0,0,2.46-1.48c.46-.78.1-1.38-.8-1.34a3.35,3.35,0,0,0-2.46,1.49C194.85,269.26,195.21,269.85,196.11,269.81Z" transform="translate(-44.89 -212.28)"/><path d="M194.87,268.49c.44-.76.09-1.34-.79-1.3a3.3,3.3,0,0,0-2.39,1.44c-.44.76-.09,1.34.78,1.3A3.27,3.27,0,0,0,194.87,268.49Z" transform="translate(-44.89 -212.28)"/><path d="M202.69,272.28a3.2,3.2,0,0,0,2.35-1.42c.44-.74.09-1.31-.77-1.27a3.2,3.2,0,0,0-2.35,1.42C201.49,271.75,201.83,272.32,202.69,272.28Z" transform="translate(-44.89 -212.28)"/><path d="M204.41,268.23a3.1,3.1,0,0,0,2.27-1.37c.43-.72.09-1.27-.74-1.24a3.11,3.11,0,0,0-2.27,1.38C203.25,267.71,203.58,268.27,204.41,268.23Z" transform="translate(-44.89 -212.28)"/><path d="M194.9,273.29a3.35,3.35,0,0,0,2.46-1.48c.46-.78.1-1.38-.8-1.34a3.36,3.36,0,0,0-2.47,1.49C193.63,272.74,194,273.33,194.9,273.29Z" transform="translate(-44.89 -212.28)"/><path d="M191.17,273.65a3.1,3.1,0,0,0,2.27-1.37c.42-.72.09-1.27-.74-1.23a3.14,3.14,0,0,0-2.28,1.37C190,273.14,190.34,273.69,191.17,273.65Z" transform="translate(-44.89 -212.28)"/><path d="M194.83,263.52a3.89,3.89,0,0,0-2.84,1.71c-.53.9-.12,1.59.92,1.54a3.86,3.86,0,0,0,2.84-1.71C196.28,264.16,195.87,263.47,194.83,263.52Z" transform="translate(-44.89 -212.28)"/><path d="M194.65,258.84a4.87,4.87,0,0,0-3.59,2.17c-.67,1.14-.15,2,1.17,1.95a4.91,4.91,0,0,0,3.6-2.17C196.49,259.65,196,258.78,194.65,258.84Z" transform="translate(-44.89 -212.28)"/><path d="M199,265.91a4.11,4.11,0,0,0,3-1.8c.56-.95.12-1.68-1-1.63a4.09,4.09,0,0,0-3,1.81C197.45,265.24,197.89,266,199,265.91Z" transform="translate(-44.89 -212.28)"/><path d="M198.73,261.94a4.48,4.48,0,0,0,3.28-2c.6-1,.12-1.83-1.08-1.78a4.47,4.47,0,0,0-3.27,2C197.05,261.2,197.53,262,198.73,261.94Z" transform="translate(-44.89 -212.28)"/><ellipse cx="205.53" cy="263.46" rx="2.41" ry="1.3" transform="translate(-151.41 -68.3) rotate(-31.09)"/><ellipse cx="205.61" cy="259.72" rx="2.41" ry="1.3" transform="translate(-149.47 -68.8) rotate(-31.09)"/><path class="cls-19" d="M189.4,289.11c8.13-6.36,13.92-13.66,16.69-20.43,2.44-6,2.53-11.57-.21-15.75a11.61,11.61,0,0,0-3.36-3.8c-3.68-2.87-8.59-4.42-15-4.08L179,257.72a17.48,17.48,0,0,1,5.27.42,9,9,0,0,1,6.28,4.35c1.78,2.58,1.6,6.39-.45,10.52a33.12,33.12,0,0,1-10.37,11.53,43.82,43.82,0,0,1-16.09,7.62,280.5,280.5,0,0,1-27.89,3.74l-6.26,10.65c2.88-.1,7.36-.27,10.27-.44a111.65,111.65,0,0,0,21.43-3A75,75,0,0,0,189.4,289.11Z" transform="translate(-44.89 -212.28)"/><path d="M181.25,371.87c6.07-5.82,10.28-12.77,11.74-21.12,2.56-14.61-2.38-26.89-12.26-37.42-6.21-6.62-14-10.75-22.44-13.95-2.31-.88-4.65-1.68-7-2.42l-32.1-8.59a1.87,1.87,0,0,1-.3-.05c-4-1-8.07-2.06-12-3.26l-.09,0h0a87.93,87.93,0,0,1-10.6-3.88c-5.45-2.44-10.47-5.53-14.42-10.12-6.88-8-8.88-18.7-3.28-28.1,2.33-3.92-16.85-8.71-19.1-2.14a37.51,37.51,0,0,0-1.67,7.08c-1.81,13.39,2.66,24.83,11.52,34.72,5.39,6,12.12,10.13,19.45,13.33a106.2,106.2,0,0,0,10.56,3.9L133.45,309c3,.77,6,1.54,9,2.41h0a78.72,78.72,0,0,1,17.06,6.81A32.82,32.82,0,0,1,172.11,330c5.17,8.72,4.78,18.8-1.58,26.76" transform="translate(-44.89 -212.28)"/><path d="M113.82,226.5a1.59,1.59,0,1,0,2-1.13A1.59,1.59,0,0,0,113.82,226.5Z" transform="translate(-44.89 -212.28)"/><path d="M109.21,225.07a1.59,1.59,0,1,0,2-1.13A1.59,1.59,0,0,0,109.21,225.07Z" transform="translate(-44.89 -212.28)"/><path d="M115.12,232.35a1.59,1.59,0,1,0-2,1.13A1.59,1.59,0,0,0,115.12,232.35Z" transform="translate(-44.89 -212.28)"/><path d="M110.78,230.31a1.59,1.59,0,0,0-1.12-1.95,1.59,1.59,0,1,0,1.12,1.95Z" transform="translate(-44.89 -212.28)"/><path class="cls-3" d="M118,232.88a1.59,1.59,0,1,0,1.12,2A1.6,1.6,0,0,0,118,232.88Z" transform="translate(-44.89 -212.28)"/><path class="cls-2" d="M118.44,230.85a1.59,1.59,0,1,0-1.12-1.95A1.59,1.59,0,0,0,118.44,230.85Z" transform="translate(-44.89 -212.28)"/><path class="cls-2" d="M122.71,225.36a1.59,1.59,0,1,0-1.95,1.13A1.59,1.59,0,0,0,122.71,225.36Z" transform="translate(-44.89 -212.28)"/><path class="cls-2" d="M122,222.52a1.59,1.59,0,1,0-1.13-2A1.59,1.59,0,0,0,122,222.52Z" transform="translate(-44.89 -212.28)"/><path class="cls-4" d="M122.44,238.3a1.59,1.59,0,1,0-2,1.12A1.6,1.6,0,0,0,122.44,238.3Z" transform="translate(-44.89 -212.28)"/><path class="cls-3" d="M123.66,232.19a1.59,1.59,0,1,0-2,1.13A1.59,1.59,0,0,0,123.66,232.19Z" transform="translate(-44.89 -212.28)"/><path class="cls-4" d="M126.23,235.25a1.59,1.59,0,1,0-2,1.13A1.59,1.59,0,0,0,126.23,235.25Z" transform="translate(-44.89 -212.28)"/><path class="cls-3" d="M126.49,228.72a1.59,1.59,0,1,0-3.08-.83,1.59,1.59,0,0,0,3.08.83Z" transform="translate(-44.89 -212.28)"/><path class="cls-3" d="M126.42,225.84a1.59,1.59,0,1,0-1.13-2A1.6,1.6,0,0,0,126.42,225.84Z" transform="translate(-44.89 -212.28)"/><path class="cls-16" d="M125.35,242.52a1.59,1.59,0,1,0-2,1.13A1.6,1.6,0,0,0,125.35,242.52Z" transform="translate(-44.89 -212.28)"/><path class="cls-16" d="M128.09,237.58a1.6,1.6,0,0,0-2,1.13,1.62,1.62,0,0,0,2.08,1.94,1.07,1.07,0,0,0,.51-.3A1.61,1.61,0,0,0,128.09,237.58Z" transform="translate(-44.89 -212.28)"/><path class="cls-4" d="M127.75,233a1.59,1.59,0,1,0-1.13-2A1.59,1.59,0,0,0,127.75,233Z" transform="translate(-44.89 -212.28)"/><path class="cls-16" d="M131.42,234.57a1.61,1.61,0,0,0-2,1.13,1.59,1.59,0,1,0,2-1.13Z" transform="translate(-44.89 -212.28)"/><path class="cls-4" d="M129.3,227.65a1.59,1.59,0,1,0,2-1.13A1.6,1.6,0,0,0,129.3,227.65Z" transform="translate(-44.89 -212.28)"/><path class="cls-16" d="M132.61,232a1.59,1.59,0,1,0,1.95-1.12A1.59,1.59,0,0,0,132.61,232Z" transform="translate(-44.89 -212.28)"/><path class="cls-5" d="M126.32,245a1.59,1.59,0,1,0-.83,3.08,1.59,1.59,0,0,0,.83-3.08Z" transform="translate(-44.89 -212.28)"/><path class="cls-5" d="M130.35,242.07a1.59,1.59,0,1,0,1.13,2A1.59,1.59,0,0,0,130.35,242.07Z" transform="translate(-44.89 -212.28)"/><path class="cls-5" d="M133.86,238.82a1.59,1.59,0,0,0-2,1.12,1.59,1.59,0,1,0,2-1.12Z" transform="translate(-44.89 -212.28)"/><path class="cls-5" d="M135.22,236.9a1.59,1.59,0,1,0,1.95-1.13A1.59,1.59,0,0,0,135.22,236.9Z" transform="translate(-44.89 -212.28)"/><path class="cls-6" d="M128.3,251a1.44,1.44,0,1,0-1.77,1A1.44,1.44,0,0,0,128.3,251Z" transform="translate(-44.89 -212.28)"/><path class="cls-6" d="M132.41,248.47a1.44,1.44,0,1,0-1.77,1A1.44,1.44,0,0,0,132.41,248.47Z" transform="translate(-44.89 -212.28)"/><path class="cls-6" d="M136.57,245.89a1.44,1.44,0,1,0-2.79-.74,1.43,1.43,0,0,0,1,1.76A1.44,1.44,0,0,0,136.57,245.89Z" transform="translate(-44.89 -212.28)"/><path class="cls-6" d="M137.79,242.48a1.44,1.44,0,1,0,1.77-1A1.44,1.44,0,0,0,137.79,242.48Z" transform="translate(-44.89 -212.28)"/><circle class="cls-9" cx="126.9" cy="258.97" r="1.27" transform="translate(-157.34 -114.18) rotate(-29.99)"/><path class="cls-9" d="M132.12,257.07a1.27,1.27,0,1,0,.9,1.56A1.27,1.27,0,0,0,132.12,257.07Z" transform="translate(-44.89 -212.28)"/><path class="cls-7" d="M133.12,253.46a1.28,1.28,0,1,0-1.56.9A1.29,1.29,0,0,0,133.12,253.46Z" transform="translate(-44.89 -212.28)"/><path class="cls-7" d="M128.35,255.32a1.27,1.27,0,1,0-1.56.9A1.28,1.28,0,0,0,128.35,255.32Z" transform="translate(-44.89 -212.28)"/><path class="cls-7" d="M136.37,250.21a1.44,1.44,0,1,0-.75,2.78,1.44,1.44,0,0,0,.75-2.78Z" transform="translate(-44.89 -212.28)"/><path class="cls-7" d="M138.66,249a1.69,1.69,0,1,0,2.07-1.19A1.69,1.69,0,0,0,138.66,249Z" transform="translate(-44.89 -212.28)"/><path class="cls-9" d="M137.65,257.43a1.27,1.27,0,1,0-1.56.9A1.27,1.27,0,0,0,137.65,257.43Z" transform="translate(-44.89 -212.28)"/><path class="cls-9" d="M139.75,255.6a1.28,1.28,0,0,0,1.2,1.61,1.26,1.26,0,0,0,1.15-.66,1.28,1.28,0,0,0-.78-1.85A1.3,1.3,0,0,0,139.75,255.6Z" transform="translate(-44.89 -212.28)"/><path class="cls-8" d="M127.32,264a1.13,1.13,0,1,0-1.38.79A1.12,1.12,0,0,0,127.32,264Z" transform="translate(-44.89 -212.28)"/><path class="cls-8" d="M132.64,263.55a1.12,1.12,0,0,0-.79-1.38,1.13,1.13,0,1,0,.79,1.38Z" transform="translate(-44.89 -212.28)"/><path class="cls-8" d="M137.79,263.17a1.13,1.13,0,0,0-.8-1.38,1.12,1.12,0,1,0-.58,2.17A1.13,1.13,0,0,0,137.79,263.17Z" transform="translate(-44.89 -212.28)"/><path class="cls-8" d="M140,261.94a1.13,1.13,0,1,0,1.38-.8A1.13,1.13,0,0,0,140,261.94Z" transform="translate(-44.89 -212.28)"/><path class="cls-17" d="M126.54,268.74a1.12,1.12,0,1,0-1.38.79A1.12,1.12,0,0,0,126.54,268.74Z" transform="translate(-44.89 -212.28)"/><path class="cls-17" d="M130.68,269.7a1.13,1.13,0,1,0-.8-1.38A1.12,1.12,0,0,0,130.68,269.7Z" transform="translate(-44.89 -212.28)"/><path class="cls-17" d="M134.85,268.66a1.13,1.13,0,1,0,1.39-.79A1.13,1.13,0,0,0,134.85,268.66Z" transform="translate(-44.89 -212.28)"/><path class="cls-17" d="M139.14,268.31a1.12,1.12,0,1,0,1.38-.8A1.13,1.13,0,0,0,139.14,268.31Z" transform="translate(-44.89 -212.28)"/><path class="cls-10" d="M123.47,273.2a1,1,0,0,0,.71,1.22,1,1,0,1,0,.51-1.93A1,1,0,0,0,123.47,273.2Z" transform="translate(-44.89 -212.28)"/><path class="cls-10" d="M128.85,273.47a1,1,0,0,0,1,1.26,1,1,0,0,0,.74-.43,1,1,0,1,0-1.78-.83Z" transform="translate(-44.89 -212.28)"/><path class="cls-10" d="M133.63,274.36a1,1,0,0,0,1,1.26,1,1,0,1,0-1-1.26Z" transform="translate(-44.89 -212.28)"/><path class="cls-10" d="M138,275a1,1,0,1,0,1.23-.7A1,1,0,0,0,138,275Z" transform="translate(-44.89 -212.28)"/><path class="cls-11" d="M122.24,279.09a.92.92,0,0,0,.65,1.12.91.91,0,1,0-.65-1.12Z" transform="translate(-44.89 -212.28)"/><circle class="cls-11" cx="128.3" cy="279.94" r="0.91" transform="translate(-167.63 -110.67) rotate(-29.99)"/><path class="cls-11" d="M132.21,280.68a.91.91,0,1,0,1.12-.65A.91.91,0,0,0,132.21,280.68Z" transform="translate(-44.89 -212.28)"/><path class="cls-11" d="M136.87,281.38a.92.92,0,0,0,.64,1.12.91.91,0,1,0-.64-1.12Z" transform="translate(-44.89 -212.28)"/><path class="cls-14" d="M121.15,284.83a.64.64,0,0,0-.14.89.65.65,0,0,0,.9.15.64.64,0,1,0-.76-1Z" transform="translate(-44.89 -212.28)"/><path class="cls-14" d="M125.88,285.81a.64.64,0,1,0,.9.14A.64.64,0,0,0,125.88,285.81Z" transform="translate(-44.89 -212.28)"/><path class="cls-14" d="M130.44,286.89a.64.64,0,0,0,.75,1,.65.65,0,0,0,.15-.9A.64.64,0,0,0,130.44,286.89Z" transform="translate(-44.89 -212.28)"/><path class="cls-14" d="M135.34,288.29a.64.64,0,0,0,.76,1,.64.64,0,1,0-.76-1Z" transform="translate(-44.89 -212.28)"/><path d="M115.1,221.87a1.59,1.59,0,1,0,2-1.13A1.59,1.59,0,0,0,115.1,221.87Z" transform="translate(-44.89 -212.28)"/><path d="M110.4,220.57a1.59,1.59,0,1,0,1.95-1.13A1.59,1.59,0,0,0,110.4,220.57Z" transform="translate(-44.89 -212.28)"/><path d="M119.44,218.82a1.59,1.59,0,0,0-1.12-1.95,1.59,1.59,0,1,0,1.12,1.95Z" transform="translate(-44.89 -212.28)"/><path d="M114.38,216.58a1.59,1.59,0,0,0-1.12-2,1.59,1.59,0,1,0,1.12,2Z" transform="translate(-44.89 -212.28)"/><path d="M104.28,219a2,2,0,1,0,2.49-1.44A2,2,0,0,0,104.28,219Z" transform="translate(-44.89 -212.28)"/><path d="M102.48,219.62a2,2,0,1,0-2.49,1.44A2,2,0,0,0,102.48,219.62Z" transform="translate(-44.89 -212.28)"/><path d="M102.25,224.45a2,2,0,1,0-2.5,1.44A2,2,0,0,0,102.25,224.45Z" transform="translate(-44.89 -212.28)"/><path d="M99.67,226.28a2,2,0,1,0,1.4,2.42A2,2,0,0,0,99.67,226.28Z" transform="translate(-44.89 -212.28)"/><path d="M108.94,215.4a1.94,1.94,0,1,0-2.38,1.37A1.94,1.94,0,0,0,108.94,215.4Z" transform="translate(-44.89 -212.28)"/><path d="M103.14,214.79a1.88,1.88,0,1,0-2.3,1.32A1.88,1.88,0,0,0,103.14,214.79Z" transform="translate(-44.89 -212.28)"/><path d="M107.42,224.74a2,2,0,1,0-2.49,1.44A2,2,0,0,0,107.42,224.74Z" transform="translate(-44.89 -212.28)"/><path d="M106.48,229a1.88,1.88,0,1,0-2.3,1.32A1.87,1.87,0,0,0,106.48,229Z" transform="translate(-44.89 -212.28)"/><path d="M91.33,228.11a2.34,2.34,0,1,0,2.87-1.66A2.34,2.34,0,0,0,91.33,228.11Z" transform="translate(-44.89 -212.28)"/><path d="M83.82,230a3,3,0,1,0,3.64-2.1A3,3,0,0,0,83.82,230Z" transform="translate(-44.89 -212.28)"/><path d="M97,222.29A2.47,2.47,0,1,0,94,224,2.47,2.47,0,0,0,97,222.29Z" transform="translate(-44.89 -212.28)"/><path d="M90.48,224a2.7,2.7,0,1,0-3.31,1.91A2.7,2.7,0,0,0,90.48,224Z" transform="translate(-44.89 -212.28)"/><circle cx="50.77" cy="2.88" r="2.41"/><circle cx="44.72" cy="4.06" r="2.41"/></svg>