<svg id="Layer_1" data-name="Layer 1" xmlns="http://www.w3.org/2000/svg" xmlns:xlink="http://www.w3.org/1999/xlink" viewBox="0 0 769.05 174.06"><defs><style>.cls-1,.cls-10,.cls-11,.cls-12,.cls-13,.cls-14,.cls-16,.cls-17,.cls-2,.cls-3,.cls-4,.cls-5,.cls-6,.cls-7,.cls-8,.cls-9{fill:#fff;}.cls-2{opacity:0.8;}.cls-3{opacity:0.75;}.cls-4{opacity:0.7;}.cls-5{opacity:0.6;}.cls-6{opacity:0.55;}.cls-7{opacity:0.5;}.cls-8{opacity:0.4;}.cls-9{opacity:0.45;}.cls-10{opacity:0.3;}.cls-11{opacity:0.25;}.cls-12{opacity:0.2;}.cls-13{opacity:0.15;}.cls-14{opacity:0.1;}.cls-15{fill:url(#linear-gradient);}.cls-16{opacity:0.65;}.cls-17{opacity:0.35;}.cls-18{fill:url(#linear-gradient-2);}.cls-19{fill:url(#linear-gradient-3);}.cls-20{fill:url(#linear-gradient-4);}</style><linearGradient id="linear-gradient" x1="6946.4" y1="-2104.59" x2="6996.97" y2="-2026.72" gradientTransform="matrix(-0.87, 0.5, -0.5, -0.87, 5143.66, -4923.69)" gradientUnits="userSpaceOnUse"><stop offset="0.18" stop-color="#fff"/><stop offset="0.27" stop-color="#fff" stop-opacity="0.88"/><stop offset="0.64" stop-color="#fff" stop-opacity="0.41"/><stop offset="0.89" stop-color="#fff" stop-opacity="0.12"/><stop offset="1" stop-color="#fff" stop-opacity="0"/></linearGradient><linearGradient id="linear-gradient-2" x1="1322.39" y1="-805.56" x2="1368.3" y2="-734.85" gradientTransform="translate(1429.46 1075.78) rotate(-121.09)" xlink:href="#linear-gradient"/><linearGradient id="linear-gradient-3" x1="5763.54" y1="-1228.99" x2="5809.71" y2="-1157.89" gradientTransform="translate(-3843.96 -4059.91) rotate(58.91)" gradientUnits="userSpaceOnUse"><stop offset="0.18" stop-color="#fff"/><stop offset="0.27" stop-color="#fff" stop-opacity="0.88"/><stop offset="0.64" stop-color="#fff" stop-opacity="0.41"/><stop offset="0.89" stop-color="#fff" stop-opacity="0.12"/><stop offset="1" stop-color="#fff" stop-opacity="0"/></linearGradient><linearGradient id="linear-gradient-4" x1="145.31" y1="54.03" x2="195.58" y2="131.44" gradientTransform="matrix(0.87, -0.5, 0.5, 0.87, -92.47, 250.01)" gradientUnits="userSpaceOnUse"><stop offset="0.18" stop-color="#fff"/><stop offset="0.27" stop-color="#fff" stop-opacity="0.88"/><stop offset="0.64" stop-color="#fff" stop-opacity="0.41"/><stop offset="0.89" stop-color="#fff" stop-opacity="0.12"/><stop offset="1" stop-color="#fff" stop-opacity="0"/></linearGradient></defs><path class="cls-1" d="M131.42,370.49a1.61,1.61,0,1,0-2,1.14A1.61,1.61,0,0,0,131.42,370.49Z" transform="translate(-38.43 -210.61)"/><path class="cls-1" d="M136.06,371.91a1.61,1.61,0,1,0-2,1.14A1.61,1.61,0,0,0,136.06,371.91Z" transform="translate(-38.43 -210.61)"/><path class="cls-2" d="M130.12,364.47a1.61,1.61,0,1,0,2-1.14A1.61,1.61,0,0,0,130.12,364.47Z" transform="translate(-38.43 -210.61)"/><path class="cls-1" d="M134.55,366.51a1.61,1.61,0,1,0,2-1.14A1.61,1.61,0,0,0,134.55,366.51Z" transform="translate(-38.43 -210.61)"/><path class="cls-3" d="M127.26,363.72a1.6,1.6,0,0,0,2-1.13,1.61,1.61,0,1,0-2,1.13Z" transform="translate(-38.43 -210.61)"/><path class="cls-2" d="M127.08,366a1.61,1.61,0,1,0,1.13,2A1.62,1.62,0,0,0,127.08,366Z" transform="translate(-38.43 -210.61)"/><path class="cls-2" d="M122.51,371.14a1.61,1.61,0,1,0,2-1.13A1.61,1.61,0,0,0,122.51,371.14Z" transform="translate(-38.43 -210.61)"/><path class="cls-2" d="M123.12,374.51a1.61,1.61,0,1,0,1.13,2A1.62,1.62,0,0,0,123.12,374.51Z" transform="translate(-38.43 -210.61)"/><path class="cls-4" d="M122.85,358.32a1.61,1.61,0,1,0,2-1.14A1.61,1.61,0,0,0,122.85,358.32Z" transform="translate(-38.43 -210.61)"/><path class="cls-3" d="M121.82,364.43a1.61,1.61,0,1,0,2-1.14A1.61,1.61,0,0,0,121.82,364.43Z" transform="translate(-38.43 -210.61)"/><path class="cls-4" d="M118.89,361.65a1.6,1.6,0,0,0,1.13,2,1.61,1.61,0,1,0-1.13-2Z" transform="translate(-38.43 -210.61)"/><path class="cls-3" d="M119,368.06a1.61,1.61,0,1,0,2-1.14A1.61,1.61,0,0,0,119,368.06Z" transform="translate(-38.43 -210.61)"/><path class="cls-3" d="M118.7,371.16a1.61,1.61,0,1,0,1.14,2A1.61,1.61,0,0,0,118.7,371.16Z" transform="translate(-38.43 -210.61)"/><path class="cls-5" d="M119.92,354.23a1.61,1.61,0,1,0,2-1.13A1.6,1.6,0,0,0,119.92,354.23Z" transform="translate(-38.43 -210.61)"/><path class="cls-5" d="M117,359.3a1.61,1.61,0,0,0,2-1.14,1.64,1.64,0,0,0-2.1-2,1.13,1.13,0,0,0-.52.3A1.63,1.63,0,0,0,117,359.3Z" transform="translate(-38.43 -210.61)"/><path class="cls-4" d="M117.35,363.94a1.61,1.61,0,1,0,1.14,2A1.61,1.61,0,0,0,117.35,363.94Z" transform="translate(-38.43 -210.61)"/><path class="cls-5" d="M113.65,362.34a1.61,1.61,0,1,0-1.14-2A1.61,1.61,0,0,0,113.65,362.34Z" transform="translate(-38.43 -210.61)"/><path class="cls-4" d="M116.24,369.51a1.61,1.61,0,1,0-2,1.14A1.61,1.61,0,0,0,116.24,369.51Z" transform="translate(-38.43 -210.61)"/><path class="cls-5" d="M112.59,364.81a1.61,1.61,0,1,0-2,1.14A1.61,1.61,0,0,0,112.59,364.81Z" transform="translate(-38.43 -210.61)"/><path class="cls-6" d="M119,351.69a1.61,1.61,0,1,0-1.14-2A1.61,1.61,0,0,0,119,351.69Z" transform="translate(-38.43 -210.61)"/><path class="cls-6" d="M114.73,354.77a1.61,1.61,0,1,0-1.14-2A1.61,1.61,0,0,0,114.73,354.77Z" transform="translate(-38.43 -210.61)"/><path class="cls-6" d="M111.18,358.05a1.6,1.6,0,1,0-1.14-2A1.59,1.59,0,0,0,111.18,358.05Z" transform="translate(-38.43 -210.61)"/><path class="cls-6" d="M109.81,360a1.61,1.61,0,1,0-2,1.14A1.61,1.61,0,0,0,109.81,360Z" transform="translate(-38.43 -210.61)"/><path class="cls-7" d="M116.94,345.63a1.46,1.46,0,1,0,2.82.76,1.47,1.47,0,0,0-1-1.79A1.46,1.46,0,0,0,116.94,345.63Z" transform="translate(-38.43 -210.61)"/><path class="cls-7" d="M112.65,348.31a1.45,1.45,0,1,0,1.78-1A1.44,1.44,0,0,0,112.65,348.31Z" transform="translate(-38.43 -210.61)"/><path class="cls-7" d="M108.45,350.91a1.44,1.44,0,0,0,1,1.78,1.46,1.46,0,1,0-1-1.78Z" transform="translate(-38.43 -210.61)"/><path class="cls-7" d="M107.33,354.29a1.46,1.46,0,1,0-1.78,1A1.46,1.46,0,0,0,107.33,354.29Z" transform="translate(-38.43 -210.61)"/><circle class="cls-8" cx="118.29" cy="337.16" r="1.29" transform="translate(-191.12 -106.35) rotate(-29.99)"/><path class="cls-8" d="M112.94,339.62a1.28,1.28,0,1,0-.91-1.57A1.27,1.27,0,0,0,112.94,339.62Z" transform="translate(-38.43 -210.61)"/><path class="cls-9" d="M112.36,342.83a1.52,1.52,0,1,0,1.86-1.07A1.52,1.52,0,0,0,112.36,342.83Z" transform="translate(-38.43 -210.61)"/><path class="cls-9" d="M116.84,341.07a1.29,1.29,0,1,0,1.58-.91A1.3,1.3,0,0,0,116.84,341.07Z" transform="translate(-38.43 -210.61)"/><path class="cls-9" d="M108.65,346.55a1.46,1.46,0,1,0-1-1.78A1.45,1.45,0,0,0,108.65,346.55Z" transform="translate(-38.43 -210.61)"/><path class="cls-9" d="M106.33,347.79a1.7,1.7,0,1,0-2.08,1.2A1.7,1.7,0,0,0,106.33,347.79Z" transform="translate(-38.43 -210.61)"/><path class="cls-8" d="M107.36,339.26a1.28,1.28,0,1,0,1.57-.91A1.29,1.29,0,0,0,107.36,339.26Z" transform="translate(-38.43 -210.61)"/><path class="cls-8" d="M105.05,341.48a1.29,1.29,0,1,0-1.57.91A1.29,1.29,0,0,0,105.05,341.48Z" transform="translate(-38.43 -210.61)"/><path class="cls-10" d="M117.82,332.13a1.14,1.14,0,1,0,2.2.59,1.14,1.14,0,0,0-2.2-.59Z" transform="translate(-38.43 -210.61)"/><path class="cls-10" d="M112,333a1.12,1.12,0,0,0,.8,1.39,1.13,1.13,0,1,0,.59-2.19A1.12,1.12,0,0,0,112,333Z" transform="translate(-38.43 -210.61)"/><path class="cls-10" d="M107.22,333.47a1.14,1.14,0,0,0,2.2.59,1.14,1.14,0,1,0-2.2-.59Z" transform="translate(-38.43 -210.61)"/><path class="cls-10" d="M105.29,334.53a1.14,1.14,0,1,0-1.39.8A1.14,1.14,0,0,0,105.29,334.53Z" transform="translate(-38.43 -210.61)"/><path class="cls-11" d="M118.4,327.74a1.13,1.13,0,1,0,1.39-.81A1.13,1.13,0,0,0,118.4,327.74Z" transform="translate(-38.43 -210.61)"/><path class="cls-11" d="M114.4,326.87a1.14,1.14,0,1,0,.8,1.39A1.15,1.15,0,0,0,114.4,326.87Z" transform="translate(-38.43 -210.61)"/><path class="cls-11" d="M110.18,327.92a1.14,1.14,0,1,0-2.2-.59,1.14,1.14,0,0,0,2.2.59Z" transform="translate(-38.43 -210.61)"/><path class="cls-11" d="M105.86,328.28a1.14,1.14,0,1,0-2.2-.59,1.13,1.13,0,0,0,.8,1.39A1.15,1.15,0,0,0,105.86,328.28Z" transform="translate(-38.43 -210.61)"/><path class="cls-12" d="M121.47,323a1,1,0,1,0-1.94-.52,1,1,0,0,0,.71,1.23A1,1,0,0,0,121.47,323Z" transform="translate(-38.43 -210.61)"/><path class="cls-12" d="M117,322.56a1,1,0,0,0-1.05-1.27,1,1,0,0,0-.75.43,1,1,0,1,0,1.8.84Z" transform="translate(-38.43 -210.61)"/><path class="cls-12" d="M112.06,321.73a1,1,0,0,0-1-1.26.94.94,0,0,0-.78.45,1,1,0,1,0,1.81.81Z" transform="translate(-38.43 -210.61)"/><path class="cls-12" d="M106.87,321.78a1,1,0,1,0-1.23.71A1,1,0,0,0,106.87,321.78Z" transform="translate(-38.43 -210.61)"/><path class="cls-13" d="M122.43,317.37a.91.91,0,0,0-.65-1.12.93.93,0,0,0-1.13.65.91.91,0,0,0,.65,1.12A.92.92,0,0,0,122.43,317.37Z" transform="translate(-38.43 -210.61)"/><circle class="cls-13" cx="116.63" cy="316.21" r="0.92" transform="translate(-180.87 -109.98) rotate(-29.99)"/><path class="cls-13" d="M112.71,315.66a.92.92,0,1,0-1.13.65A.92.92,0,0,0,112.71,315.66Z" transform="translate(-38.43 -210.61)"/><path class="cls-13" d="M108.15,315.08a.92.92,0,1,0-1.13.65A.92.92,0,0,0,108.15,315.08Z" transform="translate(-38.43 -210.61)"/><path class="cls-14" d="M123.23,311.51a.65.65,0,0,0,.14-.91.65.65,0,1,0-.14.91Z" transform="translate(-38.43 -210.61)"/><path class="cls-14" d="M118.53,310.48a.65.65,0,0,0-.76-1.05.65.65,0,1,0,.76,1.05Z" transform="translate(-38.43 -210.61)"/><path class="cls-14" d="M114.21,309.33a.65.65,0,1,0-.77-1.05.66.66,0,0,0-.14.91A.65.65,0,0,0,114.21,309.33Z" transform="translate(-38.43 -210.61)"/><path class="cls-14" d="M109.69,308.1a.65.65,0,0,0,.14-.91.64.64,0,0,0-.9-.14.65.65,0,1,0,.76,1.05Z" transform="translate(-38.43 -210.61)"/><path class="cls-1" d="M130.12,375.17a1.61,1.61,0,1,0-2,1.13A1.62,1.62,0,0,0,130.12,375.17Z" transform="translate(-38.43 -210.61)"/><path class="cls-1" d="M134.87,376.48a1.61,1.61,0,1,0-2,1.14A1.61,1.61,0,0,0,134.87,376.48Z" transform="translate(-38.43 -210.61)"/><path class="cls-1" d="M125.74,378.24a1.61,1.61,0,1,0,2-1.14A1.61,1.61,0,0,0,125.74,378.24Z" transform="translate(-38.43 -210.61)"/><path class="cls-1" d="M130.85,380.5a1.61,1.61,0,1,0,2-1.14A1.62,1.62,0,0,0,130.85,380.5Z" transform="translate(-38.43 -210.61)"/><path class="cls-1" d="M141.14,378.06a2,2,0,1,0-2.51,1.45A2,2,0,0,0,141.14,378.06Z" transform="translate(-38.43 -210.61)"/><path class="cls-1" d="M142.87,377.43a2.05,2.05,0,1,0,2.51-1.45A2,2,0,0,0,142.87,377.43Z" transform="translate(-38.43 -210.61)"/><path class="cls-1" d="M143.1,372.56a2.05,2.05,0,1,0,2.52-1.45A2.05,2.05,0,0,0,143.1,372.56Z" transform="translate(-38.43 -210.61)"/><path class="cls-1" d="M145.78,370.57a2,2,0,1,0-1.41-2.45A2,2,0,0,0,145.78,370.57Z" transform="translate(-38.43 -210.61)"/><path class="cls-1" d="M136.41,381.5a2,2,0,1,0,2.4-1.38A2,2,0,0,0,136.41,381.5Z" transform="translate(-38.43 -210.61)"/><path class="cls-1" d="M142.38,382.21a1.9,1.9,0,1,0,2.32-1.34A1.9,1.9,0,0,0,142.38,382.21Z" transform="translate(-38.43 -210.61)"/><path class="cls-1" d="M137.88,372.27a2.05,2.05,0,1,0,2.51-1.46A2.05,2.05,0,0,0,137.88,372.27Z" transform="translate(-38.43 -210.61)"/><path class="cls-1" d="M138.78,367.8a1.9,1.9,0,1,0,2.33-1.34A1.9,1.9,0,0,0,138.78,367.8Z" transform="translate(-38.43 -210.61)"/><path class="cls-1" d="M154,368.8a2.37,2.37,0,1,0-2.9,1.67A2.37,2.37,0,0,0,154,368.8Z" transform="translate(-38.43 -210.61)"/><path class="cls-1" d="M161.71,367a3,3,0,1,0-3.67,2.12A3,3,0,0,0,161.71,367Z" transform="translate(-38.43 -210.61)"/><path class="cls-1" d="M148.36,374.74a2.5,2.5,0,1,0,3.06-1.76A2.49,2.49,0,0,0,148.36,374.74Z" transform="translate(-38.43 -210.61)"/><path class="cls-1" d="M155,373.06a2.73,2.73,0,1,0,3.34-1.93A2.73,2.73,0,0,0,155,373.06Z" transform="translate(-38.43 -210.61)"/><circle class="cls-1" cx="111.33" cy="171.33" r="2.43"/><circle class="cls-1" cx="117.44" cy="170.14" r="2.43"/><path class="cls-15" d="M114.1,371A42.64,42.64,0,0,0,141,384.43a41.57,41.57,0,0,0,25.94-5.69,37.92,37.92,0,0,0,7.58-5.45c6.2-5.52,10.71-12.09,12.74-19.89l-17.4-6.08A23.48,23.48,0,0,1,167,354a24.89,24.89,0,0,1-9.66,9.22,24.22,24.22,0,0,1-17.09,3.09,24.64,24.64,0,0,1-14.78-8.76,25.43,25.43,0,0,1-6.06-17.16c.33-8.73,3.68-27.36,5-33l-15-4c-1,3.5-2.49,8.95-3.39,12.47-2.11,8.31-3.72,16.68-3.63,25.31A43.21,43.21,0,0,0,114.1,371Z" transform="translate(-38.43 -210.61)"/><path class="cls-1" d="M196.54,247.08c-4-2.78-9.45-4.08-16.6-3.24-12.53,1.47-24.38,7.43-35.61,16.3a83.41,83.41,0,0,0-16.62,18c-1.22,1.74-2.37,3.47-3.47,5.2L110.57,306.6a1.65,1.65,0,0,1-.09.21c-1.68,2.91-3.35,5.82-5.16,8.74l0,.07h0c-1.64,2.63-3.41,5.27-5.43,7.9a60.56,60.56,0,0,1-11.72,11.82c-8.39,6.32-18.31,10-25.63,8.29-3.05-.7-10.91,13.13-5.48,13.2a38.89,38.89,0,0,0,6-.43c11.58-1.7,22.6-7.17,33.06-15.22a81.9,81.9,0,0,0,15.52-15.87c2-2.63,3.77-5.26,5.45-7.88l14.55-24.82c1.26-2.18,2.51-4.36,3.84-6.54h0a91,91,0,0,1,9.26-12.85,55,55,0,0,1,12.83-10.94c8.73-5.34,17.63-7.27,23.52-4.76" transform="translate(-38.43 -210.61)"/><path class="cls-1" d="M54.5,323.61a2.67,2.67,0,0,0,2-1.17c.36-.62.07-1.09-.64-1.06a2.65,2.65,0,0,0-2,1.18C53.5,323.17,53.78,323.65,54.5,323.61Z" transform="translate(-38.43 -210.61)"/><path class="cls-1" d="M52.36,327a2.67,2.67,0,0,0,2-1.18c.36-.61.07-1.09-.64-1.05a2.67,2.67,0,0,0-2,1.17C51.36,326.56,51.64,327,52.36,327Z" transform="translate(-38.43 -210.61)"/><path class="cls-1" d="M60,321.47a2.68,2.68,0,0,0-2,1.18c-.36.62-.08,1.09.64,1.06a2.7,2.7,0,0,0,2-1.18C61,321.91,60.66,321.44,60,321.47Z" transform="translate(-38.43 -210.61)"/><path class="cls-1" d="M57.32,324.81a2.65,2.65,0,0,0-2,1.18c-.36.61-.08,1.09.64,1.05a2.67,2.67,0,0,0,2-1.17C58.32,325.25,58,324.78,57.32,324.81Z" transform="translate(-38.43 -210.61)"/><path class="cls-3" d="M61,319.47c-.36.62-.08,1.09.64,1.06a2.67,2.67,0,0,0,1.95-1.18c.36-.61.07-1.09-.64-1.05A2.65,2.65,0,0,0,61,319.47Z" transform="translate(-38.43 -210.61)"/><path class="cls-2" d="M59.24,319.59c.36-.62.07-1.09-.64-1.06a2.64,2.64,0,0,0-2,1.18c-.36.61-.08,1.09.64,1.05A2.69,2.69,0,0,0,59.24,319.59Z" transform="translate(-38.43 -210.61)"/><path class="cls-2" d="M55.15,317.94a2.65,2.65,0,0,0-1.95,1.17c-.36.62-.08,1.09.64,1.06A2.69,2.69,0,0,0,55.79,319C56.15,318.38,55.86,317.91,55.15,317.94Z" transform="translate(-38.43 -210.61)"/><path class="cls-2" d="M52.49,319c.37-.62.08-1.09-.63-1.06a2.66,2.66,0,0,0-2,1.18c-.36.61-.08,1.09.64,1.06A2.66,2.66,0,0,0,52.49,319Z" transform="translate(-38.43 -210.61)"/><path class="cls-4" d="M66.61,315.31a2.67,2.67,0,0,0-2,1.17c-.36.62-.07,1.09.64,1.06a2.65,2.65,0,0,0,2-1.18C67.61,315.75,67.33,315.27,66.61,315.31Z" transform="translate(-38.43 -210.61)"/><path class="cls-3" d="M61.4,315.82A2.63,2.63,0,0,0,59.46,317c-.37.61-.08,1.09.63,1.05A2.65,2.65,0,0,0,62,316.88C62.4,316.26,62.12,315.79,61.4,315.82Z" transform="translate(-38.43 -210.61)"/><path class="cls-4" d="M64.62,313.44a2.64,2.64,0,0,0-2,1.18c-.37.61-.08,1.09.63,1.05a2.65,2.65,0,0,0,2-1.17C65.62,313.88,65.33,313.41,64.62,313.44Z" transform="translate(-38.43 -210.61)"/><path class="cls-3" d="M58.84,314.69a2.67,2.67,0,0,0-2,1.18c-.36.61-.07,1.09.64,1.05a2.65,2.65,0,0,0,1.95-1.17C59.84,315.13,59.56,314.66,58.84,314.69Z" transform="translate(-38.43 -210.61)"/><path class="cls-3" d="M56.27,315.36c.36-.61.07-1.09-.64-1.05a2.65,2.65,0,0,0-2,1.17c-.36.62-.08,1.09.64,1.06A2.67,2.67,0,0,0,56.27,315.36Z" transform="translate(-38.43 -210.61)"/><path class="cls-16" d="M70.92,312.45a2.64,2.64,0,0,0-2,1.18c-.36.61-.08,1.09.63,1.05a2.65,2.65,0,0,0,2-1.17C71.92,312.89,71.63,312.42,70.92,312.45Z" transform="translate(-38.43 -210.61)"/><path class="cls-16" d="M67,311.69c-.36.62-.08,1.09.63,1.06,1,0,2.19-1,2.12-1.81a.37.37,0,0,0-.17-.28C68.91,310.21,67.52,310.87,67,311.69Z" transform="translate(-38.43 -210.61)"/><path class="cls-4" d="M62.88,312.92c.37-.62.08-1.09-.63-1.06a2.66,2.66,0,0,0-2,1.18c-.36.62-.08,1.09.63,1.06A2.66,2.66,0,0,0,62.88,312.92Z" transform="translate(-38.43 -210.61)"/><path class="cls-16" d="M65,310.13c-.36.62-.08,1.09.64,1.06A2.65,2.65,0,0,0,67.57,310c.36-.61.07-1.09-.64-1.05A2.67,2.67,0,0,0,65,310.13Z" transform="translate(-38.43 -210.61)"/><path class="cls-4" d="M58.42,313a2.64,2.64,0,0,0,1.95-1.17c.36-.62.08-1.09-.64-1.06A2.7,2.7,0,0,0,57.78,312C57.42,312.6,57.71,313.08,58.42,313Z" transform="translate(-38.43 -210.61)"/><path class="cls-16" d="M63,309.89a2.66,2.66,0,0,0,2-1.18c.36-.62.08-1.09-.63-1.06a2.66,2.66,0,0,0-1.95,1.18C62,309.44,62.24,309.92,63,309.89Z" transform="translate(-38.43 -210.61)"/><path class="cls-5" d="M73.32,311.26c-.36.62-.08,1.09.63,1.06a2.64,2.64,0,0,0,2-1.18c.37-.61.08-1.09-.63-1.05A2.65,2.65,0,0,0,73.32,311.26Z" transform="translate(-38.43 -210.61)"/><path class="cls-5" d="M71.45,309.21c-.36.62-.07,1.09.64,1.06a2.64,2.64,0,0,0,2-1.18c.36-.61.08-1.09-.64-1A2.69,2.69,0,0,0,71.45,309.21Z" transform="translate(-38.43 -210.61)"/><path class="cls-5" d="M69.22,307.58c-.37.61-.08,1.09.63,1.05a2.62,2.62,0,0,0,2-1.17c.36-.62.08-1.09-.63-1.06A2.66,2.66,0,0,0,69.22,307.58Z" transform="translate(-38.43 -210.61)"/><path class="cls-5" d="M67.76,307.09a2.65,2.65,0,0,0,1.95-1.17c.36-.62.08-1.09-.64-1.06A2.69,2.69,0,0,0,67.12,306C66.76,306.65,67.05,307.12,67.76,307.09Z" transform="translate(-38.43 -210.61)"/><path class="cls-6" d="M79.05,308.63a2.42,2.42,0,0,0-1.76,1.07c-.33.55-.07,1,.58.95a2.41,2.41,0,0,0,1.76-1.06C80,309,79.7,308.6,79.05,308.63Z" transform="translate(-38.43 -210.61)"/><path class="cls-6" d="M77.54,306.45a2.41,2.41,0,0,0-1.77,1.06c-.33.56-.07,1,.58,1a2.4,2.4,0,0,0,1.76-1.06C78.44,306.85,78.18,306.42,77.54,306.45Z" transform="translate(-38.43 -210.61)"/><path class="cls-6" d="M76,304.24a2.44,2.44,0,0,0-1.76,1.06c-.33.56-.07,1,.57,1a2.44,2.44,0,0,0,1.77-1.06C76.93,304.64,76.67,304.21,76,304.24Z" transform="translate(-38.43 -210.61)"/><path class="cls-6" d="M73.21,304.17A2.42,2.42,0,0,0,75,303.1c.33-.56.07-1-.58-1a2.42,2.42,0,0,0-1.76,1.07C72.31,303.77,72.57,304.2,73.21,304.17Z" transform="translate(-38.43 -210.61)"/><ellipse class="cls-9" cx="85.85" cy="307.84" rx="1.29" ry="0.7" transform="translate(-185.06 -122.06) rotate(-31.09)"/><path class="cls-9" d="M85.14,304.77c-.29.5-.06.87.51.85a2.15,2.15,0,0,0,1.56-.94c.29-.49.06-.87-.51-.85A2.15,2.15,0,0,0,85.14,304.77Z" transform="translate(-38.43 -210.61)"/><path class="cls-7" d="M82.12,304.89a2.14,2.14,0,0,0-1.56.94c-.29.5-.06.87.51.85a2.14,2.14,0,0,0,1.55-.94C82.91,305.25,82.69,304.87,82.12,304.89Z" transform="translate(-38.43 -210.61)"/><path class="cls-7" d="M82.88,307.66a2.15,2.15,0,0,0-1.56.94c-.29.5-.06.87.51.85a2.15,2.15,0,0,0,1.56-.94C83.68,308,83.45,307.64,82.88,307.66Z" transform="translate(-38.43 -210.61)"/><path class="cls-7" d="M79.83,303.43c-.33.56-.07,1,.57,1a2.4,2.4,0,0,0,1.76-1.06c.33-.56.07-1-.57-1A2.42,2.42,0,0,0,79.83,303.43Z" transform="translate(-38.43 -210.61)"/><path class="cls-7" d="M79.17,302.17a2.82,2.82,0,0,0,2.06-1.24c.38-.65.08-1.15-.68-1.12a2.82,2.82,0,0,0-2.06,1.24C78.11,301.71,78.41,302.21,79.17,302.17Z" transform="translate(-38.43 -210.61)"/><path class="cls-9" d="M86.5,301a2.11,2.11,0,0,0-1.56.94c-.29.49-.06.87.51.84a2.06,2.06,0,0,0,1.55-.94C87.29,301.36,87.07,301,86.5,301Z" transform="translate(-38.43 -210.61)"/><path class="cls-9" d="M85.27,300a2,2,0,0,0,1.65-1.15.45.45,0,0,0-.38-.62,2,2,0,0,0-1.78.93C84.47,299.65,84.69,300,85.27,300Z" transform="translate(-38.43 -210.61)"/><path class="cls-8" d="M90.42,306.46a1.87,1.87,0,0,0-1.37.83c-.26.44-.06.77.45.75a1.91,1.91,0,0,0,1.38-.83C91.13,306.77,90.93,306.44,90.42,306.46Z" transform="translate(-38.43 -210.61)"/><path class="cls-8" d="M91,303a1.84,1.84,0,0,0-1.38.83c-.26.43-.06.77.45.75a1.92,1.92,0,0,0,1.38-.84C91.71,303.33,91.51,303,91,303Z" transform="translate(-38.43 -210.61)"/><path class="cls-8" d="M91.63,299.67a1.9,1.9,0,0,0-1.38.83c-.26.44-.06.77.45.75a1.88,1.88,0,0,0,1.38-.83C92.33,300,92.13,299.65,91.63,299.67Z" transform="translate(-38.43 -210.61)"/><path class="cls-8" d="M91,298.46a1.86,1.86,0,0,0,1.38-.83c.26-.43,0-.77-.45-.75a1.9,1.9,0,0,0-1.38.84C90.24,298.15,90.45,298.49,91,298.46Z" transform="translate(-38.43 -210.61)"/><path class="cls-17" d="M94.48,306a1.9,1.9,0,0,0-1.38.84c-.25.43,0,.77.45.74a1.86,1.86,0,0,0,1.38-.83C95.19,306.27,95,305.93,94.48,306Z" transform="translate(-38.43 -210.61)"/><path class="cls-17" d="M96.11,303c.26-.44.06-.77-.45-.75a1.94,1.94,0,0,0-1.38.83c-.25.44,0,.77.45.75A1.84,1.84,0,0,0,96.11,303Z" transform="translate(-38.43 -210.61)"/><path class="cls-17" d="M96,300.43a1.86,1.86,0,0,0,1.38-.83c.26-.44.05-.77-.45-.75a1.92,1.92,0,0,0-1.38.83C95.26,300.12,95.47,300.45,96,300.43Z" transform="translate(-38.43 -210.61)"/><path class="cls-17" d="M96.46,297.65a1.88,1.88,0,0,0,1.38-.83c.25-.43,0-.77-.45-.74a1.84,1.84,0,0,0-1.38.83C95.75,297.34,96,297.68,96.46,297.65Z" transform="translate(-38.43 -210.61)"/><path class="cls-10" d="M97.87,307a1.66,1.66,0,0,0,1.22-.73c.23-.39,0-.68-.4-.66a1.66,1.66,0,0,0-1.21.73C97.25,306.76,97.43,307.05,97.87,307Z" transform="translate(-38.43 -210.61)"/><path class="cls-10" d="M99.13,303.39a1.53,1.53,0,0,0,1.31-1,.32.32,0,0,0-.24-.4,1.55,1.55,0,0,0-1.47.71C98.5,303.12,98.68,303.41,99.13,303.39Z" transform="translate(-38.43 -210.61)"/><path class="cls-10" d="M100.81,300a1.54,1.54,0,0,0,1.31-.95.32.32,0,0,0-.25-.42,1.56,1.56,0,0,0-1.46.71C100.19,299.74,100.37,300,100.81,300Z" transform="translate(-38.43 -210.61)"/><path class="cls-10" d="M102.21,296.93a1.64,1.64,0,0,0,1.22-.74c.23-.38,0-.68-.4-.66a1.68,1.68,0,0,0-1.22.74C101.59,296.65,101.77,297,102.21,296.93Z" transform="translate(-38.43 -210.61)"/><path class="cls-11" d="M102.89,306.57a1.51,1.51,0,0,0,1.11-.67c.21-.35,0-.62-.36-.6a1.51,1.51,0,0,0-1.11.67C102.32,306.32,102.48,306.59,102.89,306.57Z" transform="translate(-38.43 -210.61)"/><ellipse class="cls-11" cx="104.78" cy="302.35" rx="0.92" ry="0.5" transform="translate(-179.51 -113.07) rotate(-31.09)"/><path class="cls-11" d="M106.17,299.58a1.51,1.51,0,0,0,1.11-.67c.21-.35,0-.62-.36-.6a1.51,1.51,0,0,0-1.11.67C105.6,299.33,105.76,299.6,106.17,299.58Z" transform="translate(-38.43 -210.61)"/><path class="cls-11" d="M107.67,296.33a1.51,1.51,0,0,0,1.11-.67c.21-.36,0-.63-.36-.61a1.51,1.51,0,0,0-1.11.67C107.1,296.07,107.26,296.34,107.67,296.33Z" transform="translate(-38.43 -210.61)"/><path class="cls-14" d="M107.79,306.05c.14.15.48.1.78-.1s.42-.48.29-.63-.48-.1-.77.1S107.66,305.91,107.79,306.05Z" transform="translate(-38.43 -210.61)"/><path class="cls-14" d="M109.55,302.69c.13.14.48.1.78-.1s.42-.49.29-.63-.48-.1-.77.1S109.42,302.54,109.55,302.69Z" transform="translate(-38.43 -210.61)"/><path class="cls-14" d="M111.37,299.41c.13.15.47.11.77-.1s.43-.48.29-.63-.47-.1-.77.11S111.23,299.27,111.37,299.41Z" transform="translate(-38.43 -210.61)"/><path class="cls-14" d="M113.53,295.84c.14.15.48.1.78-.1s.42-.48.29-.63-.48-.1-.77.1S113.4,295.7,113.53,295.84Z" transform="translate(-38.43 -210.61)"/><path class="cls-1" d="M50.62,323.77a2.7,2.7,0,0,0,2-1.18c.36-.62.07-1.09-.64-1.06a2.66,2.66,0,0,0-2,1.18C49.62,323.33,49.9,323.8,50.62,323.77Z" transform="translate(-38.43 -210.61)"/><path class="cls-1" d="M48.58,327.19a2.7,2.7,0,0,0,2-1.18c.36-.62.07-1.09-.64-1.06a2.66,2.66,0,0,0-2,1.18C47.58,326.74,47.86,327.22,48.58,327.19Z" transform="translate(-38.43 -210.61)"/><path class="cls-1" d="M48.72,321.53a2.66,2.66,0,0,0-1.95,1.18c-.36.62-.08,1.09.64,1.06a2.7,2.7,0,0,0,2-1.18C49.72,322,49.43,321.5,48.72,321.53Z" transform="translate(-38.43 -210.61)"/><path class="cls-1" d="M45.78,325.39a2.66,2.66,0,0,0-2,1.18c-.37.62-.08,1.09.63,1.06a2.66,2.66,0,0,0,1.95-1.18C46.77,325.84,46.49,325.36,45.78,325.39Z" transform="translate(-38.43 -210.61)"/><path class="cls-1" d="M46,331.62a3.37,3.37,0,0,0,2.48-1.5c.46-.79.1-1.39-.81-1.35a3.38,3.38,0,0,0-2.49,1.5C44.71,331.06,45.07,331.66,46,331.62Z" transform="translate(-38.43 -210.61)"/><path class="cls-1" d="M46.25,332.67a3.4,3.4,0,0,0-2.49,1.5c-.46.78-.09,1.39.82,1.35a3.43,3.43,0,0,0,2.48-1.5C47.52,333.23,47.16,332.63,46.25,332.67Z" transform="translate(-38.43 -210.61)"/><path class="cls-1" d="M50.51,331.78a3.37,3.37,0,0,0-2.49,1.5c-.46.78-.1,1.38.81,1.34a3.38,3.38,0,0,0,2.49-1.5C51.78,332.34,51.42,331.73,50.51,331.78Z" transform="translate(-38.43 -210.61)"/><path class="cls-1" d="M51.65,333.09c-.45.77-.1,1.35.79,1.31A3.3,3.3,0,0,0,54.86,333c.45-.77.09-1.35-.79-1.31A3.3,3.3,0,0,0,51.65,333.09Z" transform="translate(-38.43 -210.61)"/><path class="cls-1" d="M43.7,329.28a3.23,3.23,0,0,0-2.37,1.43c-.45.75-.1,1.33.77,1.29a3.23,3.23,0,0,0,2.37-1.43C44.92,329.82,44.57,329.24,43.7,329.28Z" transform="translate(-38.43 -210.61)"/><path class="cls-1" d="M42.07,333.28a3.17,3.17,0,0,0-2.3,1.38c-.42.73-.09,1.29.75,1.25a3.15,3.15,0,0,0,2.3-1.39C43.25,333.8,42.91,333.24,42.07,333.28Z" transform="translate(-38.43 -210.61)"/><path class="cls-1" d="M51.73,328.26a3.43,3.43,0,0,0-2.48,1.5c-.47.79-.1,1.39.81,1.35a3.4,3.4,0,0,0,2.49-1.5C53,328.83,52.64,328.22,51.73,328.26Z" transform="translate(-38.43 -210.61)"/><path class="cls-1" d="M55.36,328a3.13,3.13,0,0,0-2.29,1.38c-.43.73-.09,1.29.75,1.25a3.11,3.11,0,0,0,2.29-1.39C56.54,328.48,56.2,327.92,55.36,328Z" transform="translate(-38.43 -210.61)"/><path class="cls-1" d="M51.71,338.26a3.91,3.91,0,0,0,2.87-1.73c.53-.9.11-1.6-.94-1.55a3.89,3.89,0,0,0-2.86,1.73C50.24,337.61,50.66,338.31,51.71,338.26Z" transform="translate(-38.43 -210.61)"/><path class="cls-1" d="M52,342.85a5,5,0,0,0,3.63-2.18c.68-1.15.15-2-1.18-2a4.94,4.94,0,0,0-3.63,2.19C50.12,342,50.65,342.92,52,342.85Z" transform="translate(-38.43 -210.61)"/><path class="cls-1" d="M47.6,335.72a4.1,4.1,0,0,0-3,1.82c-.56.95-.12,1.69,1,1.64a4.11,4.11,0,0,0,3-1.83C49.15,336.4,48.71,335.66,47.6,335.72Z" transform="translate(-38.43 -210.61)"/><path class="cls-1" d="M47.86,339.72a4.5,4.5,0,0,0-3.3,2c-.62,1-.14,1.84,1.08,1.79a4.52,4.52,0,0,0,3.3-2C49.56,340.47,49.07,339.67,47.86,339.72Z" transform="translate(-38.43 -210.61)"/><ellipse class="cls-1" cx="41" cy="338.19" rx="2.43" ry="1.32" transform="translate(-207.18 -140.86) rotate(-31.09)"/><ellipse class="cls-1" cx="40.92" cy="341.96" rx="2.43" ry="1.32" transform="translate(-209.14 -140.36) rotate(-31.09)"/><path class="cls-18" d="M57.15,312.26c-8.22,6.43-14.06,13.8-16.86,20.64-2.47,6-2.56,11.68.21,15.9a11.81,11.81,0,0,0,3.39,3.83c3.72,2.9,8.67,4.47,15.18,4.13L67.66,344a17.55,17.55,0,0,1-5.33-.43A9,9,0,0,1,56,339.14c-1.8-2.6-1.61-6.45.45-10.61a33.49,33.49,0,0,1,10.47-11.65,44.27,44.27,0,0,1,16.25-7.69c7.64-1.66,23.07-2.93,27.8-3.24l6.4-10.91c-2.9.11-7.15-.11-10.09.06a113,113,0,0,0-21.63,3A75.72,75.72,0,0,0,57.15,312.26Z" transform="translate(-38.43 -210.61)"/><path class="cls-1" d="M187.13,276.86a2.67,2.67,0,0,0-1.95,1.18c-.36.61-.07,1.09.64,1a2.65,2.65,0,0,0,2-1.17C188.13,277.3,187.85,276.83,187.13,276.86Z" transform="translate(-38.43 -210.61)"/><path class="cls-1" d="M189.25,273.49a2.64,2.64,0,0,0-1.95,1.18c-.36.61-.08,1.09.64,1.05a2.65,2.65,0,0,0,1.94-1.17C190.25,273.93,190,273.46,189.25,273.49Z" transform="translate(-38.43 -210.61)"/><path class="cls-2" d="M181.59,279a2.69,2.69,0,0,0,1.95-1.17c.36-.62.07-1.09-.64-1.06a2.64,2.64,0,0,0-2,1.18C180.59,278.57,180.87,279.05,181.59,279Z" transform="translate(-38.43 -210.61)"/><path class="cls-1" d="M184.21,275.65a2.68,2.68,0,0,0,1.95-1.18c.36-.62.08-1.09-.64-1.06a2.68,2.68,0,0,0-2,1.18C183.21,275.2,183.49,275.68,184.21,275.65Z" transform="translate(-38.43 -210.61)"/><path class="cls-3" d="M180.4,281.06c.36-.61.08-1.09-.64-1.06a2.68,2.68,0,0,0-1.95,1.18c-.36.62-.08,1.09.64,1.06A2.68,2.68,0,0,0,180.4,281.06Z" transform="translate(-38.43 -210.61)"/><path class="cls-2" d="M182.36,280.69c-.36.62-.07,1.09.64,1.06a2.65,2.65,0,0,0,1.95-1.18c.36-.61.08-1.08-.64-1.05A2.67,2.67,0,0,0,182.36,280.69Z" transform="translate(-38.43 -210.61)"/><path class="cls-2" d="M186.06,282.6a2.69,2.69,0,0,0,1.95-1.17c.36-.62.07-1.09-.64-1.06a2.67,2.67,0,0,0-2,1.17C185.06,282.16,185.34,282.63,186.06,282.6Z" transform="translate(-38.43 -210.61)"/><path class="cls-2" d="M189.14,281.47c-.36.62-.08,1.09.63,1.06a2.65,2.65,0,0,0,1.95-1.17c.37-.62.08-1.09-.63-1.06A2.65,2.65,0,0,0,189.14,281.47Z" transform="translate(-38.43 -210.61)"/><path class="cls-4" d="M174.81,285.13a2.62,2.62,0,0,0,1.95-1.17c.36-.62.08-1.09-.64-1.06a2.63,2.63,0,0,0-1.94,1.18C173.81,284.69,174.1,285.17,174.81,285.13Z" transform="translate(-38.43 -210.61)"/><path class="cls-3" d="M180,284.5a2.65,2.65,0,0,0,2-1.18c.36-.61.08-1.09-.64-1.05a2.64,2.64,0,0,0-1.95,1.17C179,284.06,179.29,284.53,180,284.5Z" transform="translate(-38.43 -210.61)"/><path class="cls-4" d="M177,287a2.69,2.69,0,0,0,1.95-1.17c.36-.62.07-1.09-.64-1.06a2.64,2.64,0,0,0-2,1.18C176,286.59,176.3,287.07,177,287Z" transform="translate(-38.43 -210.61)"/><path class="cls-3" d="M182.68,285.6a2.67,2.67,0,0,0,1.95-1.17c.36-.62.08-1.09-.64-1.06a2.67,2.67,0,0,0-2,1.18C181.68,285.16,182,285.64,182.68,285.6Z" transform="translate(-38.43 -210.61)"/><path class="cls-3" d="M185.37,285.11c-.37.62-.08,1.09.63,1.06A2.66,2.66,0,0,0,188,285c.37-.61.08-1.09-.63-1.05A2.62,2.62,0,0,0,185.37,285.11Z" transform="translate(-38.43 -210.61)"/><path class="cls-5" d="M170.67,288a2.68,2.68,0,0,0,2-1.18c.36-.61.08-1.09-.64-1a2.64,2.64,0,0,0-1.95,1.17C169.67,287.51,170,288,170.67,288Z" transform="translate(-38.43 -210.61)"/><path class="cls-5" d="M174.59,288.78c.37-.61.08-1.09-.63-1.06-1,0-2.19,1-2.12,1.81a.35.35,0,0,0,.17.28C172.72,290.26,174.11,289.6,174.59,288.78Z" transform="translate(-38.43 -210.61)"/><path class="cls-4" d="M178.75,287.55c-.36.62-.08,1.09.64,1.06a2.63,2.63,0,0,0,1.94-1.18c.37-.61.08-1.09-.63-1.05A2.65,2.65,0,0,0,178.75,287.55Z" transform="translate(-38.43 -210.61)"/><path class="cls-5" d="M176.65,290.34c.36-.61.08-1.09-.64-1a2.66,2.66,0,0,0-1.95,1.17c-.36.62-.07,1.09.64,1.06A2.66,2.66,0,0,0,176.65,290.34Z" transform="translate(-38.43 -210.61)"/><path class="cls-4" d="M183.45,287.09a2.67,2.67,0,0,0-1.95,1.18c-.36.61-.07,1.09.64,1.05a2.65,2.65,0,0,0,2-1.17C184.45,287.53,184.17,287.06,183.45,287.09Z" transform="translate(-38.43 -210.61)"/><path class="cls-5" d="M178.63,290.51a2.67,2.67,0,0,0-1.95,1.18c-.36.61-.07,1.09.64,1.05a2.67,2.67,0,0,0,2-1.17C179.63,291,179.35,290.48,178.63,290.51Z" transform="translate(-38.43 -210.61)"/><path class="cls-6" d="M168.25,289.11c.36-.62.08-1.09-.64-1.06a2.67,2.67,0,0,0-2,1.18c-.36.61-.07,1.09.64,1A2.65,2.65,0,0,0,168.25,289.11Z" transform="translate(-38.43 -210.61)"/><path class="cls-6" d="M170.18,291.26c.36-.62.07-1.09-.64-1.06a2.68,2.68,0,0,0-1.95,1.18c-.36.62-.08,1.09.64,1.06A2.68,2.68,0,0,0,170.18,291.26Z" transform="translate(-38.43 -210.61)"/><path class="cls-6" d="M172.42,292.9c.36-.62.07-1.09-.64-1.06a2.65,2.65,0,0,0-1.95,1.17c-.36.62-.08,1.09.64,1.06A2.69,2.69,0,0,0,172.42,292.9Z" transform="translate(-38.43 -210.61)"/><path class="cls-6" d="M173.87,293.38a2.68,2.68,0,0,0-2,1.18c-.36.62-.08,1.09.64,1.06a2.7,2.7,0,0,0,1.95-1.18C174.87,293.82,174.58,293.35,173.87,293.38Z" transform="translate(-38.43 -210.61)"/><path class="cls-7" d="M162.53,291.77a2.42,2.42,0,0,0,1.77-1.07c.33-.56.07-1-.58-1a2.38,2.38,0,0,0-1.76,1.07C161.63,291.37,161.89,291.8,162.53,291.77Z" transform="translate(-38.43 -210.61)"/><path class="cls-7" d="M164.1,294a2.42,2.42,0,0,0,1.76-1.07c.33-.56.07-1-.58-1a2.42,2.42,0,0,0-1.76,1.07C163.19,293.63,163.45,294.06,164.1,294Z" transform="translate(-38.43 -210.61)"/><path class="cls-7" d="M165.61,296.23a2.41,2.41,0,0,0,1.77-1.06c.32-.56.07-1-.58-1a2.42,2.42,0,0,0-1.77,1.07C164.7,295.84,165,296.26,165.61,296.23Z" transform="translate(-38.43 -210.61)"/><path class="cls-7" d="M168.38,296.25a2.41,2.41,0,0,0-1.77,1.06c-.32.56-.07,1,.58,1A2.42,2.42,0,0,0,169,297.2C169.29,296.64,169,296.22,168.38,296.25Z" transform="translate(-38.43 -210.61)"/><ellipse class="cls-8" cx="155.32" cy="292.7" rx="1.29" ry="0.7" transform="translate(-167.27 -88.36) rotate(-31.09)"/><path class="cls-8" d="M156.49,295.7c.29-.49.06-.87-.51-.84a2.08,2.08,0,0,0-1.55.94c-.29.49-.07.87.51.84A2.14,2.14,0,0,0,156.49,295.7Z" transform="translate(-38.43 -210.61)"/><path class="cls-9" d="M159.21,295.39a2.49,2.49,0,0,0,1.84-1.1c.34-.58.07-1-.6-1a2.5,2.5,0,0,0-1.83,1.11C158.27,295,158.54,295.42,159.21,295.39Z" transform="translate(-38.43 -210.61)"/><path class="cls-9" d="M158.49,292.81a2.11,2.11,0,0,0,1.56-.94c.29-.49.06-.87-.51-.84A2.08,2.08,0,0,0,158,292C157.7,292.46,157.92,292.84,158.49,292.81Z" transform="translate(-38.43 -210.61)"/><path class="cls-9" d="M161.8,297c.33-.56.07-1-.57-1a2.39,2.39,0,0,0-1.76,1.06c-.33.55-.07,1,.57,1A2.37,2.37,0,0,0,161.8,297Z" transform="translate(-38.43 -210.61)"/><path class="cls-9" d="M162.47,298.3a2.8,2.8,0,0,0-2.06,1.25c-.39.65-.09,1.15.67,1.11a2.8,2.8,0,0,0,2.06-1.24C163.52,298.77,163.22,298.27,162.47,298.3Z" transform="translate(-38.43 -210.61)"/><path class="cls-8" d="M155.14,299.47a2.14,2.14,0,0,0,1.55-.94c.29-.5.07-.87-.5-.85a2.14,2.14,0,0,0-1.56.94C154.34,299.11,154.57,299.49,155.14,299.47Z" transform="translate(-38.43 -210.61)"/><path class="cls-8" d="M156.67,300.51a2,2,0,0,0-1.66,1.15.45.45,0,0,0,.38.62,2,2,0,0,0,1.79-.93C157.47,300.86,157.24,300.48,156.67,300.51Z" transform="translate(-38.43 -210.61)"/><path class="cls-10" d="M150.79,294.09a1.87,1.87,0,0,0,1.38-.83c.26-.44.06-.77-.45-.75a1.91,1.91,0,0,0-1.38.83C150.09,293.78,150.29,294.11,150.79,294.09Z" transform="translate(-38.43 -210.61)"/><path class="cls-10" d="M150.43,297.76a1.87,1.87,0,0,0,1.38-.83c.26-.44.06-.77-.45-.75A1.91,1.91,0,0,0,150,297C149.73,297.45,149.93,297.78,150.43,297.76Z" transform="translate(-38.43 -210.61)"/><path class="cls-10" d="M150,300.8a1.84,1.84,0,0,0,1.38-.83c.26-.44.06-.77-.45-.75a1.94,1.94,0,0,0-1.38.83C149.3,300.49,149.5,300.83,150,300.8Z" transform="translate(-38.43 -210.61)"/><path class="cls-10" d="M150.58,301.85a1.88,1.88,0,0,0-1.38.83c-.25.43,0,.77.45.75a1.88,1.88,0,0,0,1.38-.84C151.29,302.16,151.09,301.82,150.58,301.85Z" transform="translate(-38.43 -210.61)"/><path class="cls-11" d="M147,294.66a1.9,1.9,0,0,0,1.37-.83c.26-.44.06-.77-.45-.75a1.84,1.84,0,0,0-1.37.83C146.32,294.35,146.52,294.68,147,294.66Z" transform="translate(-38.43 -210.61)"/><path class="cls-11" d="M145.52,297.48c-.26.44-.05.77.45.75a1.86,1.86,0,0,0,1.38-.83c.26-.44.05-.77-.45-.75A1.92,1.92,0,0,0,145.52,297.48Z" transform="translate(-38.43 -210.61)"/><path class="cls-11" d="M145.66,300a1.94,1.94,0,0,0-1.38.83c-.25.44-.05.77.45.75a1.84,1.84,0,0,0,1.38-.83C146.37,300.35,146.17,300,145.66,300Z" transform="translate(-38.43 -210.61)"/><path class="cls-11" d="M145.17,302.82a1.88,1.88,0,0,0-1.38.83c-.25.44,0,.77.46.75a1.87,1.87,0,0,0,1.37-.83C145.88,303.13,145.68,302.8,145.17,302.82Z" transform="translate(-38.43 -210.61)"/><path class="cls-12" d="M143.43,293.64a1.66,1.66,0,0,0-1.22.74c-.23.38-.05.68.4.66a1.66,1.66,0,0,0,1.22-.74C144.05,293.92,143.88,293.62,143.43,293.64Z" transform="translate(-38.43 -210.61)"/><path class="cls-12" d="M142.2,296.68a1.55,1.55,0,0,0-1.31,1,.32.32,0,0,0,.24.4,1.51,1.51,0,0,0,1.47-.71C142.83,297,142.65,296.66,142.2,296.68Z" transform="translate(-38.43 -210.61)"/><path class="cls-12" d="M140.56,300.13a1.55,1.55,0,0,0-1.31,1,.32.32,0,0,0,.25.41,1.54,1.54,0,0,0,1.46-.71C141.18,300.41,141,300.11,140.56,300.13Z" transform="translate(-38.43 -210.61)"/><path class="cls-12" d="M139.63,303.55a1.69,1.69,0,0,0-1.22.73c-.22.39,0,.69.4.67a1.69,1.69,0,0,0,1.22-.74C140.26,303.83,140.08,303.53,139.63,303.55Z" transform="translate(-38.43 -210.61)"/><path class="cls-13" d="M138.64,294.22a1.49,1.49,0,0,0-1.11.68c-.21.35-.05.62.36.6a1.51,1.51,0,0,0,1.11-.67C139.21,294.48,139.05,294.21,138.64,294.22Z" transform="translate(-38.43 -210.61)"/><ellipse class="cls-13" cx="136.53" cy="298.31" rx="0.92" ry="0.5" transform="translate(-172.86 -97.25) rotate(-31.09)"/><path class="cls-13" d="M135.32,301a1.51,1.51,0,0,0-1.11.67c-.21.35-.05.62.36.61a1.51,1.51,0,0,0,1.11-.67C135.89,301.26,135.73,301,135.32,301Z" transform="translate(-38.43 -210.61)"/><path class="cls-13" d="M134,304.15a1.52,1.52,0,0,0-1.11.67c-.21.35,0,.62.36.6a1.54,1.54,0,0,0,1.12-.67C134.53,304.4,134.37,304.13,134,304.15Z" transform="translate(-38.43 -210.61)"/><path class="cls-14" d="M133.62,295c-.14-.15-.48-.1-.78.1s-.42.48-.29.63.48.1.77-.1S133.75,295.1,133.62,295Z" transform="translate(-38.43 -210.61)"/><path class="cls-14" d="M131.84,298.28c-.13-.14-.48-.1-.77.1s-.43.49-.3.63.48.1.77-.1S132,298.43,131.84,298.28Z" transform="translate(-38.43 -210.61)"/><path class="cls-14" d="M130,301.38c-.13-.14-.48-.1-.77.1s-.43.49-.3.63.48.1.78-.1S130.15,301.53,130,301.38Z" transform="translate(-38.43 -210.61)"/><path class="cls-14" d="M128.1,304.63c-.13-.14-.48-.1-.78.1s-.42.49-.29.63.48.1.77-.1S128.23,304.78,128.1,304.63Z" transform="translate(-38.43 -210.61)"/><path class="cls-1" d="M191,276.71a2.65,2.65,0,0,0-2,1.17c-.37.62-.08,1.09.63,1.06a2.64,2.64,0,0,0,2-1.18C192,277.15,191.73,276.67,191,276.71Z" transform="translate(-38.43 -210.61)"/><path class="cls-1" d="M193.06,273.29a2.65,2.65,0,0,0-1.95,1.17c-.37.62-.08,1.09.63,1.06a2.65,2.65,0,0,0,1.95-1.17C194.06,273.73,193.77,273.26,193.06,273.29Z" transform="translate(-38.43 -210.61)"/><path class="cls-1" d="M192.91,278.94a2.64,2.64,0,0,0,2-1.18c.37-.61.08-1.09-.63-1.05a2.65,2.65,0,0,0-1.95,1.17C191.91,278.5,192.2,279,192.91,278.94Z" transform="translate(-38.43 -210.61)"/><path class="cls-1" d="M195.86,275.08a2.67,2.67,0,0,0,1.95-1.18c.36-.61.07-1.09-.64-1a2.67,2.67,0,0,0-1.95,1.17C194.86,274.64,195.14,275.11,195.86,275.08Z" transform="translate(-38.43 -210.61)"/><path class="cls-1" d="M195.62,268.81a3.38,3.38,0,0,0-2.49,1.5c-.46.78-.1,1.39.81,1.34a3.38,3.38,0,0,0,2.49-1.5C196.89,269.37,196.53,268.77,195.62,268.81Z" transform="translate(-38.43 -210.61)"/><path class="cls-1" d="M195.38,267.81a3.45,3.45,0,0,0,2.49-1.5c.46-.79.1-1.39-.81-1.35a3.38,3.38,0,0,0-2.49,1.5C194.11,267.24,194.47,267.85,195.38,267.81Z" transform="translate(-38.43 -210.61)"/><path class="cls-1" d="M191.13,268.7a3.37,3.37,0,0,0,2.48-1.5c.46-.79.1-1.39-.81-1.35a3.4,3.4,0,0,0-2.49,1.5C189.85,268.14,190.22,268.74,191.13,268.7Z" transform="translate(-38.43 -210.61)"/><path class="cls-1" d="M189.87,267.36c.45-.76.09-1.35-.79-1.31a3.28,3.28,0,0,0-2.42,1.46c-.45.76-.09,1.35.79,1.31A3.28,3.28,0,0,0,189.87,267.36Z" transform="translate(-38.43 -210.61)"/><path class="cls-1" d="M197.77,271.19a3.23,3.23,0,0,0,2.37-1.43c.44-.75.1-1.33-.77-1.29A3.25,3.25,0,0,0,197,269.9C196.55,270.65,196.9,271.23,197.77,271.19Z" transform="translate(-38.43 -210.61)"/><path class="cls-1" d="M199.5,267.1a3.13,3.13,0,0,0,2.3-1.39c.43-.72.09-1.28-.75-1.24a3.17,3.17,0,0,0-2.3,1.38C198.33,266.58,198.66,267.14,199.5,267.1Z" transform="translate(-38.43 -210.61)"/><path class="cls-1" d="M189.9,272.21a3.4,3.4,0,0,0,2.49-1.5c.46-.78.09-1.39-.82-1.35a3.4,3.4,0,0,0-2.48,1.5C188.62,271.65,189,272.25,189.9,272.21Z" transform="translate(-38.43 -210.61)"/><path class="cls-1" d="M186.13,272.57a3.12,3.12,0,0,0,2.3-1.38c.43-.73.09-1.28-.75-1.25a3.15,3.15,0,0,0-2.3,1.39C185,272.06,185.29,272.61,186.13,272.57Z" transform="translate(-38.43 -210.61)"/><path class="cls-1" d="M189.83,262.35a3.9,3.9,0,0,0-2.87,1.72c-.53.91-.11,1.61.94,1.56a3.89,3.89,0,0,0,2.86-1.73C191.3,263,190.88,262.3,189.83,262.35Z" transform="translate(-38.43 -210.61)"/><path class="cls-1" d="M189.65,257.62a5,5,0,0,0-3.63,2.19c-.67,1.15-.14,2,1.19,2a5,5,0,0,0,3.63-2.19C191.51,258.44,191,257.56,189.65,257.62Z" transform="translate(-38.43 -210.61)"/><path class="cls-1" d="M194,264.76a4.13,4.13,0,0,0,3-1.82c.56-1,.12-1.69-1-1.64a4.11,4.11,0,0,0-3,1.82C192.48,264.08,192.92,264.81,194,264.76Z" transform="translate(-38.43 -210.61)"/><path class="cls-1" d="M193.77,260.75a4.56,4.56,0,0,0,3.31-2c.61-1.05.13-1.85-1.08-1.8a4.51,4.51,0,0,0-3.31,2C192.08,260,192.56,260.81,193.77,260.75Z" transform="translate(-38.43 -210.61)"/><ellipse class="cls-1" cx="200.63" cy="262.28" rx="2.43" ry="1.32" transform="translate(-145.05 -69.33) rotate(-31.09)"/><ellipse class="cls-1" cx="200.71" cy="258.51" rx="2.43" ry="1.32" transform="matrix(0.86, -0.52, 0.52, 0.86, -143.09, -69.83)"/><path class="cls-19" d="M184.35,288.19c8.21-6.43,14.05-13.8,16.85-20.64,2.47-6,2.56-11.68-.21-15.9a11.81,11.81,0,0,0-3.39-3.83c-3.72-2.9-8.67-4.47-15.18-4.13l-8.58,12.8a17.2,17.2,0,0,1,5.32.43,9,9,0,0,1,6.34,4.39c1.8,2.6,1.61,6.45-.45,10.61a33.49,33.49,0,0,1-10.47,11.65,44.27,44.27,0,0,1-16.25,7.69A281.14,281.14,0,0,1,130.16,295l-6.31,10.77c2.9-.11,7.43-.28,10.37-.45a113.16,113.16,0,0,0,21.64-3.05A75.86,75.86,0,0,0,184.35,288.19Z" transform="translate(-38.43 -210.61)"/><path class="cls-1" d="M176.11,371.75c6.14-5.88,10.39-12.9,11.86-21.33,2.59-14.75-2.4-27.15-12.37-37.78-6.27-6.68-14.2-10.86-22.66-14.09-2.34-.89-4.7-1.69-7.08-2.44l-32.42-8.68a1.18,1.18,0,0,1-.29-.05c-4.08-1-8.15-2.07-12.17-3.29l-.1,0h0a90.19,90.19,0,0,1-10.7-3.91c-5.5-2.47-10.57-5.59-14.56-10.22-7-8.06-9-18.88-3.31-28.38,2.35-4-17-8.79-19.28-2.16a37.48,37.48,0,0,0-1.69,7.15C49.51,260.07,54,271.61,63,281.6c5.44,6.07,12.24,10.22,19.64,13.46A108.42,108.42,0,0,0,93.28,299l34.57,9.23c3.05.78,6.1,1.56,9.12,2.44h0a79,79,0,0,1,17.23,6.87,33.17,33.17,0,0,1,12.69,11.88c5.22,8.8,4.82,19-1.6,27" transform="translate(-38.43 -210.61)"/><path class="cls-1" d="M108,225a1.61,1.61,0,1,0,2-1.14A1.61,1.61,0,0,0,108,225Z" transform="translate(-38.43 -210.61)"/><path class="cls-1" d="M103.38,223.52a1.61,1.61,0,1,0,2-1.14A1.61,1.61,0,0,0,103.38,223.52Z" transform="translate(-38.43 -210.61)"/><path class="cls-1" d="M109.35,230.87a1.61,1.61,0,1,0-2,1.14A1.61,1.61,0,0,0,109.35,230.87Z" transform="translate(-38.43 -210.61)"/><path class="cls-1" d="M105,228.81a1.61,1.61,0,1,0-2,1.14A1.61,1.61,0,0,0,105,228.81Z" transform="translate(-38.43 -210.61)"/><path class="cls-3" d="M112.21,231.4a1.61,1.61,0,1,0,1.14,2A1.61,1.61,0,0,0,112.21,231.4Z" transform="translate(-38.43 -210.61)"/><path class="cls-2" d="M112.7,229.36a1.61,1.61,0,1,0-1.13-2A1.62,1.62,0,0,0,112.7,229.36Z" transform="translate(-38.43 -210.61)"/><path class="cls-2" d="M117,223.81a1.61,1.61,0,1,0-2,1.14A1.61,1.61,0,0,0,117,223.81Z" transform="translate(-38.43 -210.61)"/><path class="cls-2" d="M116.34,221a1.61,1.61,0,1,0-1.14-2A1.61,1.61,0,0,0,116.34,221Z" transform="translate(-38.43 -210.61)"/><path class="cls-4" d="M116.74,236.87a1.61,1.61,0,1,0-2,1.14A1.61,1.61,0,0,0,116.74,236.87Z" transform="translate(-38.43 -210.61)"/><path class="cls-3" d="M118,230.71a1.61,1.61,0,1,0-2,1.14A1.61,1.61,0,0,0,118,230.71Z" transform="translate(-38.43 -210.61)"/><path class="cls-4" d="M120.57,233.8a1.61,1.61,0,1,0-2,1.14A1.61,1.61,0,0,0,120.57,233.8Z" transform="translate(-38.43 -210.61)"/><path class="cls-3" d="M120.82,227.2a1.6,1.6,0,0,0-1.13-2,1.61,1.61,0,1,0,1.13,2Z" transform="translate(-38.43 -210.61)"/><path class="cls-3" d="M120.75,224.29a1.61,1.61,0,1,0-1.13-2A1.62,1.62,0,0,0,120.75,224.29Z" transform="translate(-38.43 -210.61)"/><path class="cls-16" d="M119.67,241.14a1.61,1.61,0,1,0-2,1.14A1.61,1.61,0,0,0,119.67,241.14Z" transform="translate(-38.43 -210.61)"/><path class="cls-16" d="M122.45,236.16a1.6,1.6,0,0,0-2,1.13,1.63,1.63,0,0,0,2.09,2,1.05,1.05,0,0,0,.52-.3A1.62,1.62,0,0,0,122.45,236.16Z" transform="translate(-38.43 -210.61)"/><path class="cls-4" d="M122.1,231.52a1.61,1.61,0,1,0-1.14-2A1.61,1.61,0,0,0,122.1,231.52Z" transform="translate(-38.43 -210.61)"/><path class="cls-16" d="M125.8,233.12a1.61,1.61,0,1,0,1.14,2A1.61,1.61,0,0,0,125.8,233.12Z" transform="translate(-38.43 -210.61)"/><path class="cls-4" d="M123.67,226.12a1.61,1.61,0,1,0,2-1.13A1.62,1.62,0,0,0,123.67,226.12Z" transform="translate(-38.43 -210.61)"/><path class="cls-16" d="M127,230.56a1.61,1.61,0,1,0,2-1.14A1.61,1.61,0,0,0,127,230.56Z" transform="translate(-38.43 -210.61)"/><path class="cls-5" d="M120.65,243.66a1.61,1.61,0,1,0,1.14,2A1.61,1.61,0,0,0,120.65,243.66Z" transform="translate(-38.43 -210.61)"/><path class="cls-5" d="M124.73,240.69a1.61,1.61,0,1,0,1.13,2A1.62,1.62,0,0,0,124.73,240.69Z" transform="translate(-38.43 -210.61)"/><path class="cls-5" d="M128.27,237.4a1.61,1.61,0,1,0,1.14,2A1.61,1.61,0,0,0,128.27,237.4Z" transform="translate(-38.43 -210.61)"/><path class="cls-5" d="M129.64,235.46a1.61,1.61,0,0,0,3.11.84,1.61,1.61,0,1,0-3.11-.84Z" transform="translate(-38.43 -210.61)"/><path class="cls-6" d="M122.66,249.74a1.46,1.46,0,1,0-1.79,1A1.46,1.46,0,0,0,122.66,249.74Z" transform="translate(-38.43 -210.61)"/><path class="cls-6" d="M126.81,247.15a1.46,1.46,0,1,0-1.79,1A1.47,1.47,0,0,0,126.81,247.15Z" transform="translate(-38.43 -210.61)"/><path class="cls-6" d="M131,244.55a1.46,1.46,0,0,0-1-1.79,1.44,1.44,0,0,0-1.78,1,1.46,1.46,0,1,0,2.81.76Z" transform="translate(-38.43 -210.61)"/><path class="cls-6" d="M132.24,241.1a1.46,1.46,0,1,0,1.78-1A1.44,1.44,0,0,0,132.24,241.1Z" transform="translate(-38.43 -210.61)"/><circle class="cls-9" cx="121.24" cy="257.75" r="1.29" transform="translate(-151.03 -115.5) rotate(-29.99)"/><path class="cls-9" d="M126.51,255.83a1.29,1.29,0,1,0,.91,1.58A1.28,1.28,0,0,0,126.51,255.83Z" transform="translate(-38.43 -210.61)"/><path class="cls-7" d="M127.52,252.19a1.29,1.29,0,1,0-1.58.91A1.29,1.29,0,0,0,127.52,252.19Z" transform="translate(-38.43 -210.61)"/><path class="cls-7" d="M122.71,254.07a1.29,1.29,0,1,0-1.58.91A1.29,1.29,0,0,0,122.71,254.07Z" transform="translate(-38.43 -210.61)"/><path class="cls-7" d="M130.8,248.91a1.45,1.45,0,1,0,1,1.78A1.45,1.45,0,0,0,130.8,248.91Z" transform="translate(-38.43 -210.61)"/><path class="cls-7" d="M133.12,247.67a1.69,1.69,0,0,0,1.2,2.08,1.7,1.7,0,1,0-1.2-2.08Z" transform="translate(-38.43 -210.61)"/><path class="cls-9" d="M132.1,256.2a1.29,1.29,0,1,0-1.58.9A1.3,1.3,0,0,0,132.1,256.2Z" transform="translate(-38.43 -210.61)"/><path class="cls-9" d="M134.22,254.35a1.29,1.29,0,0,0,1.21,1.62,1.27,1.27,0,0,0,1.16-.67,1.28,1.28,0,0,0-.79-1.86A1.3,1.3,0,0,0,134.22,254.35Z" transform="translate(-38.43 -210.61)"/><path class="cls-8" d="M121.67,262.85a1.14,1.14,0,1,0-1.4.8A1.15,1.15,0,0,0,121.67,262.85Z" transform="translate(-38.43 -210.61)"/><path class="cls-8" d="M127,262.38a1.14,1.14,0,1,0-1.39.8A1.15,1.15,0,0,0,127,262.38Z" transform="translate(-38.43 -210.61)"/><path class="cls-8" d="M132.23,262a1.13,1.13,0,1,0-1.39.8A1.14,1.14,0,0,0,132.23,262Z" transform="translate(-38.43 -210.61)"/><path class="cls-8" d="M134.47,260.75a1.14,1.14,0,0,0,2.2.59,1.14,1.14,0,1,0-2.2-.59Z" transform="translate(-38.43 -210.61)"/><path class="cls-17" d="M120.88,267.61a1.12,1.12,0,0,0-.8-1.39,1.14,1.14,0,1,0,.8,1.39Z" transform="translate(-38.43 -210.61)"/><path class="cls-17" d="M125.06,268.58a1.13,1.13,0,1,0-.81-1.39A1.13,1.13,0,0,0,125.06,268.58Z" transform="translate(-38.43 -210.61)"/><path class="cls-17" d="M129.27,267.54a1.14,1.14,0,1,0,1.4-.81A1.14,1.14,0,0,0,129.27,267.54Z" transform="translate(-38.43 -210.61)"/><path class="cls-17" d="M133.6,267.18a1.12,1.12,0,0,0,.8,1.39,1.13,1.13,0,1,0,.59-2.19A1.12,1.12,0,0,0,133.6,267.18Z" transform="translate(-38.43 -210.61)"/><path class="cls-10" d="M117.78,272.12a1,1,0,1,0,1.23-.72A1,1,0,0,0,117.78,272.12Z" transform="translate(-38.43 -210.61)"/><path class="cls-10" d="M123.21,272.39a1,1,0,0,0,1.05,1.27,1,1,0,0,0,.75-.43,1,1,0,1,0-1.8-.84Z" transform="translate(-38.43 -210.61)"/><path class="cls-10" d="M128,273.29a1,1,0,0,0,1,1.27,1,1,0,1,0-1-1.27Z" transform="translate(-38.43 -210.61)"/><path class="cls-10" d="M132.5,273.94a1,1,0,1,0,1.94.52,1,1,0,0,0-.71-1.23A1,1,0,0,0,132.5,273.94Z" transform="translate(-38.43 -210.61)"/><path class="cls-11" d="M116.54,278.07a.92.92,0,1,0,1.12-.65A.91.91,0,0,0,116.54,278.07Z" transform="translate(-38.43 -210.61)"/><circle class="cls-11" cx="122.66" cy="278.93" r="0.92" transform="translate(-161.43 -111.96) rotate(-29.99)"/><path class="cls-11" d="M126.61,279.67a.92.92,0,1,0,1.12-.65A.91.91,0,0,0,126.61,279.67Z" transform="translate(-38.43 -210.61)"/><path class="cls-11" d="M131.31,280.38a.92.92,0,1,0,1.12-.65A.91.91,0,0,0,131.31,280.38Z" transform="translate(-38.43 -210.61)"/><path class="cls-14" d="M115.44,283.86a.65.65,0,0,0,.76,1.05.65.65,0,1,0-.76-1.05Z" transform="translate(-38.43 -210.61)"/><path class="cls-14" d="M120.21,284.85a.65.65,0,0,0-.14.91.64.64,0,0,0,.9.14.65.65,0,1,0-.76-1Z" transform="translate(-38.43 -210.61)"/><path class="cls-14" d="M124.82,285.94a.64.64,0,0,0-.15.9.65.65,0,1,0,1-.76A.64.64,0,0,0,124.82,285.94Z" transform="translate(-38.43 -210.61)"/><path class="cls-14" d="M129.76,287.36a.65.65,0,1,0,.91.14A.65.65,0,0,0,129.76,287.36Z" transform="translate(-38.43 -210.61)"/><path class="cls-1" d="M109.33,220.29a1.61,1.61,0,1,0,2-1.14A1.61,1.61,0,0,0,109.33,220.29Z" transform="translate(-38.43 -210.61)"/><path class="cls-1" d="M104.58,219a1.61,1.61,0,1,0,2-1.14A1.61,1.61,0,0,0,104.58,219Z" transform="translate(-38.43 -210.61)"/><path class="cls-1" d="M113.71,217.22a1.61,1.61,0,1,0-2,1.13A1.62,1.62,0,0,0,113.71,217.22Z" transform="translate(-38.43 -210.61)"/><path class="cls-1" d="M108.6,215a1.6,1.6,0,0,0-1.13-2,1.61,1.61,0,1,0,1.13,2Z" transform="translate(-38.43 -210.61)"/><path class="cls-1" d="M98.4,217.34a2.05,2.05,0,1,0,2.51-1.45A2.05,2.05,0,0,0,98.4,217.34Z" transform="translate(-38.43 -210.61)"/><path class="cls-1" d="M96.59,218a2.05,2.05,0,1,0-2.52,1.45A2.05,2.05,0,0,0,96.59,218Z" transform="translate(-38.43 -210.61)"/><path class="cls-1" d="M96.35,222.9a2.06,2.06,0,1,0-2.52,1.45A2.07,2.07,0,0,0,96.35,222.9Z" transform="translate(-38.43 -210.61)"/><path class="cls-1" d="M93.75,224.74a2,2,0,1,0,1.41,2.45A2,2,0,0,0,93.75,224.74Z" transform="translate(-38.43 -210.61)"/><path class="cls-1" d="M103.11,213.75a2,2,0,1,0-2.4,1.39A2,2,0,0,0,103.11,213.75Z" transform="translate(-38.43 -210.61)"/><path class="cls-1" d="M97.25,213.14a1.89,1.89,0,1,0-2.32,1.34A1.9,1.9,0,0,0,97.25,213.14Z" transform="translate(-38.43 -210.61)"/><path class="cls-1" d="M101.57,223.19a2,2,0,1,0-2.51,1.45A2,2,0,0,0,101.57,223.19Z" transform="translate(-38.43 -210.61)"/><path class="cls-1" d="M100.63,227.51a1.9,1.9,0,1,0-2.32,1.34A1.9,1.9,0,0,0,100.63,227.51Z" transform="translate(-38.43 -210.61)"/><path class="cls-1" d="M85.32,226.59a2.37,2.37,0,1,0,2.9-1.67A2.37,2.37,0,0,0,85.32,226.59Z" transform="translate(-38.43 -210.61)"/><path class="cls-1" d="M77.74,228.49a3,3,0,1,0,3.68-2.12A3,3,0,0,0,77.74,228.49Z" transform="translate(-38.43 -210.61)"/><path class="cls-1" d="M91.09,220.71a2.49,2.49,0,1,0-3,1.77A2.5,2.5,0,0,0,91.09,220.71Z" transform="translate(-38.43 -210.61)"/><path class="cls-1" d="M84.47,222.4a2.73,2.73,0,1,0-3.34,1.93A2.72,2.72,0,0,0,84.47,222.4Z" transform="translate(-38.43 -210.61)"/><circle class="cls-1" cx="51.26" cy="2.91" r="2.43"/><circle class="cls-1" cx="45.15" cy="4.1" r="2.43"/><path class="cls-20" d="M125.44,224.3a42.64,42.64,0,0,0-26.86-13.46,41.61,41.61,0,0,0-25.94,5.7A38.61,38.61,0,0,0,65.05,222c-6.19,5.52-10.7,12.09-12.73,19.9L69.72,248a23,23,0,0,1,2.81-6.63,24.78,24.78,0,0,1,9.66-9.23A24.33,24.33,0,0,1,99.28,229a24.64,24.64,0,0,1,14.78,8.77,25.45,25.45,0,0,1,6,17.15c-.32,8.74-4.38,27.09-5.76,32.75l15.2,4.06c1-3.5,3-8.74,3.91-12.27,2.11-8.3,3.72-16.68,3.63-25.3A43.2,43.2,0,0,0,125.44,224.3Z" transform="translate(-38.43 -210.61)"/><path class="cls-1" d="M285.47,313.47H268.62l1.29-11.78h29.23v39.59a52.47,52.47,0,0,1-11.43,4.24,54.73,54.73,0,0,1-13.55,1.65q-12.14,0-21.15-5.48a36.7,36.7,0,0,1-13.85-14.9,45.35,45.35,0,0,1-4.83-21,43.52,43.52,0,0,1,5.36-21.62,38.6,38.6,0,0,1,14.91-15A42.67,42.67,0,0,1,276,263.74a55.8,55.8,0,0,1,10.73,1.3A40.59,40.59,0,0,1,298,268.93l-4.83,11a27.32,27.32,0,0,0-3.18-.95c-3-.86-5.36-1.47-7.13-1.82a33.57,33.57,0,0,0-6.54-.53,26.55,26.55,0,0,0-13.2,3.3,23.66,23.66,0,0,0-9.37,9.84q-3.48,6.54-3.47,16a36.55,36.55,0,0,0,2.94,15.14,22.63,22.63,0,0,0,8.31,10,22.1,22.1,0,0,0,12.31,3.48,57.24,57.24,0,0,0,11.67-1.3Z" transform="translate(-38.43 -210.61)"/><path class="cls-1" d="M333.08,301a37.29,37.29,0,0,0-8.61,1.12,42.9,42.9,0,0,0-8,2.65L312.34,292q3.06-2,9.78-3.59a49.16,49.16,0,0,1,10.72-1.59,28.5,28.5,0,0,1,12.49,2.71,22.61,22.61,0,0,1,9,7.54,18.55,18.55,0,0,1,3.36,10.84v37.59h-10l-2.6-6.13q-7.18,7.55-15.08,7.55-10.25,0-15.44-5t-5.18-13.49q0-8.73,5.89-13.5t15.79-4.77h11.2a9.6,9.6,0,0,0-2.54-6.78A9,9,0,0,0,333.08,301Zm-2.24,19.44a8.09,8.09,0,0,0-6.07,2.36,7.83,7.83,0,0,0-2.3,5.66,5.87,5.87,0,0,0,2.06,4.47,7.47,7.47,0,0,0,5.25,1.89q6.83,0,12.6-5.66v-8.72Z" transform="translate(-38.43 -210.61)"/><path class="cls-1" d="M386.57,262.33v83.19h-15.2v-81.9Z" transform="translate(-38.43 -210.61)"/><path class="cls-1" d="M422.86,301a37.28,37.28,0,0,0-8.6,1.12,42.9,42.9,0,0,0-8,2.65L402.12,292q3.08-2,9.79-3.59a49.16,49.16,0,0,1,10.72-1.59,28.5,28.5,0,0,1,12.49,2.71,22.68,22.68,0,0,1,9,7.54,18.55,18.55,0,0,1,3.36,10.84v37.59h-10l-2.6-6.13q-7.19,7.55-15.08,7.55-10.24,0-15.44-5t-5.18-13.49q0-8.73,5.89-13.5t15.79-4.77h11.2a9.6,9.6,0,0,0-2.54-6.78A9,9,0,0,0,422.86,301Zm-2.24,19.44a8.08,8.08,0,0,0-6.06,2.36,7.79,7.79,0,0,0-2.3,5.66,5.87,5.87,0,0,0,2.06,4.47,7.44,7.44,0,0,0,5.24,1.89q6.84,0,12.61-5.66v-8.72Z" transform="translate(-38.43 -210.61)"/><path class="cls-1" d="M483.08,328.32l-11.43,17.2h-17l19.44-29.1-17.44-25.57,14.26-4.36,13,20.15,11.79-18.27h16.73L493,318.66l17.55,26.86H493.68Z" transform="translate(-38.43 -210.61)"/><path class="cls-1" d="M571.57,288.37l-22.39,56.92v27.33H535.87v-27.1l-21.09-54.79,15-4.48L542.94,323l12.49-34.65Z" transform="translate(-38.43 -210.61)"/><path class="cls-1" d="M595.14,347.05a39.58,39.58,0,0,1-9.13-1.23,26.54,26.54,0,0,1-8.19-3.24l2.12-4.84a57.34,57.34,0,0,0,7.83,3.3,24.13,24.13,0,0,0,7.6,1.18q7.08,0,11.08-2.88a9.18,9.18,0,0,0,4-7.84q0-7.06-15.09-13-16.61-6.48-16.61-15.91A14.23,14.23,0,0,1,584,291.26q5.17-4.42,14.49-4.42a31.76,31.76,0,0,1,8.54,1.35,25.26,25.26,0,0,1,7.6,3.36l-2.35,4.13a64.38,64.38,0,0,0-7.07-3,24.12,24.12,0,0,0-7.55-1,14.4,14.4,0,0,0-9.6,3.12,9.4,9.4,0,0,0-3.71,7.37c0,2.43,1.25,4.59,3.77,6.48a47,47,0,0,0,10.6,5.54,43.58,43.58,0,0,1,12.67,7.24A12.41,12.41,0,0,1,616,331Q616,347,595.14,347.05Z" transform="translate(-38.43 -210.61)"/><path class="cls-1" d="M695.18,288.37l-17,57.15h-5.54l-14.84-48.19-13.55,48.19h-5.54l-16.85-55.73,5.42-2.13,14,50.32,14.49-49.61h4.95L675.62,338l13.67-49.61Z" transform="translate(-38.43 -210.61)"/><path class="cls-1" d="M725.11,291.67a33.4,33.4,0,0,0-8.6.94,46.11,46.11,0,0,0-7.78,3.07l-2.24-3.89a27.13,27.13,0,0,1,8.72-3.54,40.8,40.8,0,0,1,9.55-1.41q9.54,0,14.67,5t5.13,13.61v40.06h-4.48l-.94-6.13a23.75,23.75,0,0,1-17.44,7.66q-9.32,0-14.26-4.89a17,17,0,0,1-5-12.66q0-8,5.65-12.55t14.73-4.54h15.91v-7.07q0-6.24-3.47-10T725.11,291.67Zm-1.77,25.1c-4.94,0-8.66,1.18-11.13,3.53a13.1,13.1,0,0,0,0,18.27q3.7,3.66,10,3.65a17.62,17.62,0,0,0,9.48-2.59,23.58,23.58,0,0,0,7.13-6.95V316.77Z" transform="translate(-38.43 -210.61)"/><path class="cls-1" d="M807.48,317.24q0,13.32-6.6,21.57T782,347.05a21.25,21.25,0,0,1-7.72-1.53,32.51,32.51,0,0,1-7.25-3.89v31h-5.77V288.37h3.3l1.65,5.42a23.47,23.47,0,0,1,16.61-7q12.25,0,18.44,8.25T807.48,317.24Zm-6,.12q0-11.19-4.71-18.44t-13.91-7.25a18,18,0,0,0-8.72,1.94,29.56,29.56,0,0,0-7.07,5.72v36.41q7.19,6.48,15.2,6.48a16.42,16.42,0,0,0,10.43-3.36,20.8,20.8,0,0,0,6.54-9A33.69,33.69,0,0,0,801.47,317.36Z" transform="translate(-38.43 -210.61)"/></svg>