<?xml version="1.0" encoding="utf-8"?>
<!-- Generator: Adobe Illustrator 25.2.3, SVG Export Plug-In . SVG Version: 6.00 Build 0)  -->
<svg version="1.0" id="Layer_1" xmlns="http://www.w3.org/2000/svg" xmlns:xlink="http://www.w3.org/1999/xlink" x="0px" y="0px"
	 viewBox="0 0 1920 1080" enable-background="new 0 0 1920 1080" xml:space="preserve">
<text transform="matrix(1 0 0 1 545.98 601.7413)" fill="#FFFFFF" font-family="'MoskBold700'" font-size="191px">Galaxy</text>
<text transform="matrix(1 0 0 1 1101.3973 601.7413)" fill="#FFFFFF" font-family="'MoskThin100'" font-size="191px">protocol</text>
<linearGradient id="Path_661_1_" gradientUnits="userSpaceOnUse" x1="0.7838" y1="1079.6318" x2="-0.2163" y2="1079.6318" gradientTransform="matrix(367.6111 0 0 -205.3047 172.3889 222190.2812)">
	<stop  offset="0" style="stop-color:#EB06F2"/>
	<stop  offset="5.700000e-02" style="stop-color:#E506EC"/>
	<stop  offset="1" style="stop-color:#00FFC4"/>
</linearGradient>
<path id="Path_661" fill="url(#Path_661_1_)" d="M454.5,505.9L454.5,505.9c-4.1-10.2-10.2-19.4-18-27.1c-7.7-7.7-17-13.8-27.1-17.9
	c-9.8-4-20.2-6-30.7-6c-10.5,0-21,2-30.7,6c-10.2,4.1-19.4,10.2-27.1,17.9l-28.9,29l17.7,17.7l28.9-29
	c10.7-10.7,25.2-16.7,40.3-16.6c15.1-0.1,29.6,5.9,40.3,16.6c10.7,10.7,16.7,25.2,16.6,40.3c0.1,15.1-5.9,29.6-16.6,40.3
	c-10.7,10.7-25.2,16.7-40.3,16.6c-15.1,0.1-29.6-5.9-40.3-16.6l-50.5-50.5c0,0-92.5-92.4-92.5-92.4L92.9,536.8l102.6,102.7
	l73.8-74.3l-17.4-17.4l-56.4,57l-67.9-67.9l67.9-67.9l76,76c0,0,49.4,49.6,49.4,49.6c7.7,7.7,17,13.8,27.1,17.9c9.7,4,20.2,6,30.7,6
	c10.5,0,21-2,30.7-6c10.2-4.1,19.4-10.2,27.1-17.9c7.7-7.7,13.8-17,17.9-27.1c4-9.8,6-20.2,6-30.7
	C460.5,526.1,458.5,515.7,454.5,505.9z"/>
</svg>
